<svg width="94" height="22" viewBox="0 0 94 22" fill="none" xmlns="http://www.w3.org/2000/svg">
<g clip-path="url(#clip0_160_677)">
<path d="M12.7844 5.81665L12.7704 5.80839L12.7378 5.79846C12.751 5.8095 12.7673 5.8159 12.7844 5.81665Z" fill="#0D0C22"/>
<path d="M12.791 5.81442C12.7885 5.81412 12.7863 5.81357 12.7841 5.81281C12.7839 5.81431 12.7839 5.81582 12.7841 5.81732C12.7866 5.817 12.7888 5.81598 12.791 5.81442Z" fill="#0D0C22"/>
<path d="M12.7839 5.81773H12.788V5.81531L12.7839 5.81773Z" fill="#0D0C22"/>
<path d="M12.9742 7.25471L12.9979 7.24123L13.0067 7.23625L13.0146 7.22772C12.9998 7.2342 12.986 7.24334 12.9742 7.25471Z" fill="#0D0C22"/>
<path d="M12.8242 5.84844L12.801 5.8264L12.7853 5.81787C12.7939 5.83276 12.8077 5.84373 12.8242 5.84844Z" fill="#0D0C22"/>
<path d="M7.09227 19.8267C7.07377 19.8346 7.05759 19.8472 7.04517 19.863L7.05976 19.8536C7.06967 19.8446 7.08372 19.8338 7.09227 19.8267Z" fill="#0D0C22"/>
<path d="M10.4205 19.1718C10.4205 19.1512 10.4104 19.1549 10.4129 19.2283C10.4129 19.2223 10.4153 19.2163 10.4164 19.2105C10.4177 19.1976 10.4188 19.1848 10.4205 19.1718Z" fill="#0D0C22"/>
<path d="M10.0774 19.8267C10.0589 19.8346 10.0427 19.8472 10.0303 19.863L10.0449 19.8536C10.0548 19.8446 10.0688 19.8338 10.0774 19.8267Z" fill="#0D0C22"/>
<path d="M4.74647 19.9829C4.73244 19.9708 4.71526 19.9626 4.6969 19.9597C4.71177 19.967 4.72663 19.9741 4.73656 19.9796L4.74647 19.9829Z" fill="#0D0C22"/>
<path d="M4.21896 19.4774C4.21682 19.456 4.21025 19.4354 4.19971 19.4167C4.20718 19.436 4.21342 19.456 4.21843 19.4764L4.21896 19.4774Z" fill="#0D0C22"/>
<path d="M7.76221 10.4407C7.0379 10.7507 6.21594 11.1023 5.15066 11.1023C4.70502 11.1014 4.26155 11.0403 3.83228 10.9206L4.56906 18.4851C4.59513 18.8012 4.73918 19.0961 4.97255 19.3108C5.20593 19.5258 5.51159 19.6451 5.82884 19.6449C5.82884 19.6449 6.87351 19.6992 7.2221 19.6992C7.59726 19.6992 8.72224 19.6449 8.72224 19.6449C9.03943 19.6449 9.34502 19.5256 9.57836 19.3108C9.81168 19.0959 9.95568 18.8012 9.98175 18.4851L10.7709 10.126C10.4182 10.0056 10.0623 9.92554 9.6611 9.92554C8.96719 9.92527 8.4081 10.1642 7.76221 10.4407Z" fill="white"/>
<path d="M1.55298 7.21344L1.56594 7.22554L1.57438 7.23061C1.56788 7.22415 1.5607 7.21838 1.55298 7.21344Z" fill="#0D0C22"/>
<path d="M14.1793 6.51528L14.0685 5.95566C13.9688 5.45352 13.7429 4.97907 13.2275 4.79758C13.0624 4.73953 12.8748 4.71457 12.7481 4.59442C12.6215 4.47424 12.584 4.28761 12.5547 4.11452C12.5006 3.79686 12.4495 3.47893 12.3939 3.16182C12.3459 2.8892 12.3078 2.58292 12.1828 2.33282C12.0202 1.99698 11.6824 1.80058 11.3466 1.67064C11.1744 1.60639 10.9988 1.55205 10.8205 1.50788C9.98146 1.28651 9.09929 1.20512 8.23608 1.15875C7.20002 1.10158 6.16118 1.1188 5.12757 1.21029C4.35825 1.28027 3.54797 1.36492 2.81688 1.63102C2.54967 1.72843 2.27435 1.84533 2.07116 2.05177C1.82187 2.30541 1.74048 2.69768 1.9225 3.01397C2.05191 3.23859 2.2711 3.39728 2.50357 3.50226C2.80638 3.63753 3.12262 3.74046 3.44704 3.80934C4.35038 4.00901 5.28601 4.0874 6.20887 4.12076C7.23173 4.16205 8.25626 4.12859 9.27424 4.02066C9.52599 3.99301 9.77728 3.95981 10.0281 3.92112C10.3235 3.87581 10.5131 3.48951 10.4261 3.22041C10.3219 2.89869 10.042 2.7739 9.72537 2.82246C9.67872 2.82979 9.63233 2.83656 9.58566 2.84336L9.55204 2.84824C9.44479 2.86179 9.33754 2.87445 9.2303 2.88621C9.00876 2.91008 8.78669 2.92962 8.56406 2.9448C8.06547 2.97952 7.5655 2.99554 7.06582 2.99634C6.57483 2.99634 6.08355 2.9825 5.59363 2.95023C5.37009 2.93557 5.14711 2.91695 4.92467 2.89434C4.82348 2.88376 4.72257 2.87264 4.62165 2.86016L4.52563 2.84795L4.50474 2.84498L4.40518 2.83059C4.20172 2.79995 3.99827 2.76467 3.79699 2.72209C3.77669 2.71758 3.75851 2.70629 3.74549 2.69006C3.73248 2.67384 3.72537 2.65364 3.72537 2.63284C3.72537 2.61204 3.73248 2.59186 3.74549 2.57563C3.75851 2.5594 3.77669 2.5481 3.79699 2.54359H3.80078C3.97522 2.50642 4.151 2.47469 4.32732 2.44701C4.38611 2.4378 4.44507 2.42874 4.50419 2.41989H4.50582C4.61623 2.41256 4.72719 2.39277 4.83705 2.37973C5.79292 2.28031 6.75448 2.24642 7.71498 2.27829C8.18128 2.29184 8.64734 2.31925 9.11148 2.36645C9.21131 2.37677 9.31061 2.38762 9.40988 2.39981C9.44786 2.40442 9.48612 2.40986 9.52436 2.41447L9.6014 2.42559C9.82602 2.45904 10.0495 2.49964 10.2717 2.5474C10.601 2.619 11.0239 2.64233 11.1705 3.00314C11.217 3.11761 11.2382 3.24483 11.264 3.36501L11.2969 3.51826C11.2978 3.52102 11.2984 3.52384 11.2988 3.52668C11.3764 3.88837 11.4541 4.25006 11.5317 4.61178C11.5375 4.63848 11.5377 4.6661 11.5321 4.69287C11.5268 4.71964 11.5158 4.74501 11.5002 4.76737C11.4845 4.78976 11.4644 4.80866 11.4411 4.82291C11.4178 4.83716 11.3917 4.84645 11.3647 4.85022H11.3624L11.3151 4.85673L11.2681 4.86296C11.1194 4.88232 10.9705 4.9004 10.8216 4.91723C10.5281 4.95067 10.2341 4.97962 9.93967 5.00403C9.35463 5.05269 8.76842 5.0846 8.18102 5.09978C7.88172 5.10775 7.58251 5.11146 7.28338 5.1109C6.09277 5.10997 4.90319 5.04078 3.72049 4.90366C3.59245 4.88846 3.46442 4.87219 3.33638 4.85563C3.43565 4.8684 3.26422 4.84587 3.2295 4.84099C3.14812 4.82961 3.06674 4.81776 2.98535 4.80545C2.71217 4.76449 2.44064 4.71404 2.16801 4.66983C1.8384 4.61556 1.52319 4.64271 1.22507 4.80545C0.980345 4.93936 0.782284 5.14473 0.657286 5.39411C0.528706 5.65996 0.490466 5.94942 0.43295 6.23506C0.375435 6.52072 0.285918 6.82806 0.319834 7.12131C0.392794 7.75418 0.835249 8.26853 1.47165 8.38354C2.07034 8.49204 2.6723 8.57995 3.27588 8.6548C5.64688 8.9452 8.04222 8.97994 10.4206 8.75844C10.6143 8.74034 10.8078 8.72064 11.0008 8.6993C11.0612 8.69267 11.1223 8.69961 11.1796 8.71965C11.2368 8.73966 11.2889 8.77224 11.3319 8.81499C11.375 8.85776 11.4081 8.90962 11.4285 8.96676C11.4489 9.02391 11.4563 9.0849 11.4501 9.14528L11.3898 9.73067C11.2685 10.9136 11.1472 12.0964 11.0259 13.2792C10.8993 14.5213 10.7718 15.7632 10.6436 17.005C10.6075 17.3549 10.5713 17.7046 10.5351 18.0542C10.5004 18.3983 10.4955 18.7535 10.4301 19.0937C10.3271 19.6285 9.9649 19.9572 9.43647 20.0772C8.95234 20.1874 8.45778 20.2453 7.96129 20.2498C7.41089 20.2527 6.86074 20.2284 6.31033 20.2313C5.72276 20.2346 5.00307 20.1804 4.54949 19.743C4.151 19.359 4.09594 18.7575 4.04168 18.2375C3.96933 17.5491 3.89763 16.8607 3.82657 16.1723L3.42779 12.3449L3.1698 9.86847C3.16548 9.82752 3.16113 9.78709 3.15705 9.74587C3.12615 9.45046 2.91699 9.16128 2.5874 9.17619C2.30526 9.18867 1.98463 9.42847 2.01772 9.74587L2.20897 11.5818L2.60447 15.3797C2.71715 16.4585 2.82955 17.5373 2.94168 18.6164C2.96338 18.8231 2.98373 19.0305 3.0065 19.2371C3.13047 20.3668 3.99312 20.9755 5.06139 21.1468C5.68532 21.2473 6.32444 21.2679 6.95758 21.2782C7.76922 21.2912 8.58902 21.3225 9.38738 21.1755C10.5704 20.9584 11.458 20.1685 11.5846 18.943C11.6209 18.5894 11.6571 18.2354 11.6931 17.8816C11.8134 16.7112 11.9335 15.5406 12.0535 14.37L12.4456 10.545L12.6256 8.79207C12.6344 8.70515 12.6713 8.62342 12.7302 8.55898C12.7893 8.49455 12.8675 8.45081 12.9532 8.43428C13.2915 8.36834 13.6149 8.25578 13.8556 7.99833C14.2386 7.58843 14.3148 7.05403 14.1793 6.51528ZM1.45429 6.89345C1.45943 6.891 1.44994 6.93521 1.44588 6.95584C1.44506 6.92464 1.44669 6.89697 1.45429 6.89345ZM1.48711 7.14735C1.48983 7.14546 1.49796 7.15631 1.50636 7.16933C1.49362 7.15738 1.48548 7.14845 1.48684 7.14735H1.48711ZM1.5194 7.18994C1.5373 7.22223 1.53106 7.20975 1.5194 7.18994ZM1.58423 7.24257H1.58585C1.58585 7.24447 1.58884 7.24636 1.58993 7.24826C1.58812 7.24618 1.58612 7.24426 1.58396 7.24257H1.58423ZM12.9376 7.16389C12.8161 7.27946 12.6328 7.33318 12.452 7.36004C10.4228 7.66114 8.36413 7.81359 6.31276 7.74631C4.84465 7.69613 3.39198 7.5331 1.9385 7.32775C1.79608 7.30767 1.64174 7.28164 1.5438 7.17666C1.35933 6.97862 1.44994 6.57984 1.49796 6.34059C1.54191 6.12141 1.62601 5.82924 1.88669 5.79804C2.2936 5.7503 2.76616 5.92201 3.16873 5.98304C3.6534 6.05701 4.13988 6.11624 4.62818 6.16074C6.71208 6.35062 8.83098 6.32105 10.9057 6.04328C11.2838 5.99245 11.6606 5.93342 12.036 5.86614C12.3706 5.80617 12.7413 5.69361 12.9435 6.04002C13.0821 6.27602 13.1004 6.59178 13.079 6.85844C13.0724 6.97462 13.0218 7.08391 12.9371 7.16389H12.9376Z" fill="#0D0C22"/>
<path fill-rule="evenodd" clip-rule="evenodd" d="M25.2452 12.8019C25.1268 13.028 24.9639 13.2249 24.7566 13.392C24.5492 13.5593 24.3075 13.6954 24.0309 13.8003C23.7545 13.9054 23.4763 13.9759 23.1967 14.0118C22.9168 14.0479 22.6452 14.0448 22.3822 14.0019C22.1189 13.9594 21.8948 13.8725 21.7107 13.7412L21.9183 11.5869C22.109 11.5214 22.3491 11.4541 22.6388 11.3852C22.9284 11.3164 23.2261 11.2671 23.5323 11.2377C23.8386 11.2081 24.1279 11.2116 24.4011 11.2476C24.6742 11.2836 24.8898 11.3705 25.0478 11.5083C25.1334 11.5869 25.2059 11.6721 25.265 11.764C25.3243 11.8559 25.3604 11.9509 25.3737 12.0493C25.4065 12.3247 25.3639 12.5756 25.2452 12.8019ZM22.234 8.21274C22.3721 8.1275 22.5385 8.05199 22.7325 7.98634C22.9267 7.92096 23.1258 7.87489 23.3299 7.8487C23.5338 7.82261 23.7329 7.81911 23.9273 7.83883C24.1213 7.85854 24.2926 7.9126 24.4407 8.00108C24.5887 8.08969 24.6989 8.21762 24.7714 8.38473C24.8437 8.55208 24.8635 8.76361 24.8305 9.01933C24.8044 9.22264 24.7234 9.39486 24.5887 9.53578C24.4539 9.67692 24.2891 9.79485 24.0951 9.88997C23.901 9.98519 23.6952 10.0606 23.4782 10.1161C23.2607 10.172 23.0517 10.2131 22.8511 10.2392C22.6504 10.2655 22.4759 10.282 22.3279 10.2883C22.1798 10.2949 22.0826 10.2982 22.0365 10.2982L22.234 8.21274ZM26.3115 11.4098C26.2063 11.1804 26.0648 10.9787 25.8871 10.8048C25.7094 10.631 25.4985 10.5049 25.2551 10.4261C25.3604 10.3409 25.4641 10.2065 25.5663 10.0228C25.6682 9.83929 25.7553 9.63911 25.8278 9.4227C25.9001 9.20617 25.9497 8.98826 25.9759 8.76849C26.002 8.54883 25.9921 8.36026 25.9464 8.20275C25.8342 7.80939 25.6583 7.50111 25.418 7.27809C25.1777 7.0552 24.898 6.90106 24.5789 6.81571C24.2595 6.73072 23.9075 6.7125 23.5225 6.76167C23.1374 6.81083 22.7441 6.90755 22.3427 7.05182C22.3427 7.01912 22.346 6.98469 22.3526 6.94861C22.359 6.91268 22.3623 6.87485 22.3623 6.83541C22.3623 6.73708 22.313 6.65195 22.2142 6.57969C22.1156 6.50756 22.0021 6.46501 21.8738 6.45177C21.7453 6.4388 21.6203 6.4665 21.4984 6.5354C21.3767 6.60428 21.2927 6.73072 21.2468 6.91404C21.194 7.50437 21.1413 8.11764 21.0888 8.75364C21.0361 9.38988 20.9801 10.0326 20.921 10.682C20.8617 11.3312 20.8024 11.9755 20.7433 12.6149C20.684 13.2544 20.6247 13.8692 20.5656 14.4593C20.5853 14.6364 20.6345 14.7742 20.7136 14.8726C20.7925 14.971 20.8847 15.0301 20.99 15.0497C21.0952 15.0694 21.2056 15.0512 21.3207 14.9955C21.4358 14.94 21.5363 14.843 21.622 14.7053C21.8851 14.8496 22.1815 14.9431 22.5105 14.9858C22.8396 15.0283 23.1734 15.0283 23.5128 14.9858C23.8515 14.9431 24.1855 14.8628 24.5146 14.7447C24.8437 14.6267 25.1433 14.4791 25.4131 14.3021C25.683 14.125 25.91 13.9232 26.0945 13.6971C26.2786 13.4707 26.4005 13.2264 26.4596 12.9642C26.5189 12.6953 26.5354 12.4265 26.509 12.1575C26.4827 11.8887 26.4168 11.6396 26.3115 11.4098Z" fill="#0D0C23"/>
<path fill-rule="evenodd" clip-rule="evenodd" d="M35.9437 16.6037C35.9077 16.8202 35.8564 17.0481 35.7907 17.2876C35.7248 17.5267 35.6476 17.745 35.5589 17.9419C35.4699 18.1385 35.3713 18.2973 35.2627 18.4188C35.154 18.5401 35.037 18.5909 34.9121 18.5714C34.8134 18.558 34.7508 18.4958 34.7247 18.3844C34.6981 18.2728 34.6981 18.135 34.7247 17.9713C34.7508 17.8072 34.8017 17.6218 34.8775 17.4153C34.9532 17.2088 35.0455 17.0037 35.154 16.8006C35.2627 16.5972 35.3861 16.4021 35.5243 16.2152C35.6624 16.0284 35.8072 15.8725 35.9586 15.748C35.9915 15.7873 36.0063 15.8857 36.003 16.0431C35.9995 16.2005 35.98 16.3875 35.9437 16.6037ZM39.2909 12.3344C39.2019 12.2361 39.0934 12.1804 38.9649 12.1672C38.8366 12.154 38.7065 12.2262 38.5751 12.3836C38.4894 12.5409 38.3807 12.6918 38.2491 12.8361C38.1175 12.9805 37.981 13.1115 37.8395 13.2296C37.6978 13.3475 37.5629 13.4494 37.4347 13.5345C37.3064 13.6199 37.2059 13.6821 37.1336 13.7214C37.1072 13.5117 37.0922 13.2854 37.0891 13.0426C37.0856 12.8 37.0908 12.5542 37.1039 12.3049C37.1235 11.9508 37.1647 11.5934 37.2273 11.2326C37.2899 10.872 37.3803 10.5178 37.4989 10.1701C37.4989 9.98661 37.4559 9.83735 37.3704 9.72253C37.2847 9.60784 37.1812 9.53558 37.0595 9.50612C36.9375 9.47667 36.8128 9.49302 36.6843 9.55529C36.556 9.61769 36.4458 9.73089 36.3535 9.89464C36.2747 10.1112 36.1841 10.3538 36.0821 10.6226C35.98 10.8916 35.8649 11.1654 35.7366 11.4441C35.6081 11.723 35.465 11.9934 35.307 12.2557C35.1491 12.5181 34.9763 12.751 34.7887 12.9542C34.6011 13.1575 34.397 13.3166 34.1767 13.4313C33.9559 13.5461 33.7177 13.5969 33.4609 13.5838C33.3423 13.551 33.2566 13.4625 33.2041 13.3181C33.1514 13.1739 33.1201 12.9935 33.1104 12.7771C33.1005 12.5607 33.1104 12.3229 33.1398 12.0638C33.1695 11.8049 33.209 11.5474 33.2585 11.2917C33.3077 11.0358 33.362 10.7932 33.4211 10.5637C33.4804 10.3342 33.5363 10.1406 33.589 9.98325C33.668 9.79316 33.668 9.63391 33.589 9.50612C33.5101 9.37819 33.4016 9.29308 33.2634 9.25027C33.1252 9.20773 32.9802 9.20946 32.8289 9.25528C32.6775 9.3012 32.5688 9.40278 32.5031 9.56015C32.3911 9.82924 32.289 10.1308 32.1969 10.4652C32.1049 10.7997 32.0307 11.1458 31.9749 11.5031C31.9189 11.8606 31.8874 12.2148 31.881 12.5657C31.8806 12.5885 31.8816 12.6102 31.8816 12.6329C31.7381 13.0142 31.6014 13.3024 31.4714 13.4952C31.3036 13.7445 31.1141 13.8527 30.9037 13.8198C30.8112 13.7805 30.7507 13.6887 30.721 13.5443C30.6912 13.4002 30.6815 13.2231 30.6912 13.0131C30.7013 12.8034 30.726 12.5657 30.7653 12.2999C30.805 12.0344 30.8541 11.7589 30.9134 11.4736C30.9727 11.1882 31.0353 10.9015 31.101 10.6129C31.1669 10.3243 31.226 10.0521 31.2789 9.79629C31.2723 9.56678 31.2047 9.39144 31.0762 9.27C30.9482 9.14881 30.7686 9.10126 30.5384 9.12736C30.3804 9.19298 30.2635 9.27836 30.1879 9.3832C30.1121 9.48801 30.0511 9.62257 30.0052 9.78642C29.9787 9.8718 29.9393 10.0423 29.8866 10.2981C29.8339 10.5537 29.7666 10.8474 29.6842 11.1785C29.602 11.5098 29.5048 11.8557 29.393 12.2163C29.2812 12.577 29.156 12.9035 29.018 13.1952C28.8796 13.487 28.7283 13.7214 28.5637 13.8985C28.3992 14.0755 28.2215 14.1478 28.0306 14.1149C27.9252 14.0952 27.8578 13.987 27.8282 13.7903C27.7985 13.5935 27.7938 13.351 27.8133 13.0624C27.8331 12.7738 27.8726 12.4573 27.9317 12.1131C27.991 11.7688 28.0518 11.4426 28.1144 11.1342C28.177 10.826 28.2347 10.5537 28.2874 10.3177C28.3399 10.0816 28.3761 9.92421 28.3959 9.84559C28.3959 9.65539 28.3529 9.50301 28.2676 9.38806C28.1819 9.27348 28.0784 9.20122 27.9565 9.17165C27.8345 9.1422 27.7095 9.15855 27.5815 9.22082C27.453 9.28322 27.3428 9.39642 27.2505 9.56015C27.2176 9.73725 27.1748 9.94231 27.1222 10.1751C27.0695 10.4078 27.0187 10.6472 26.9692 10.8932C26.9198 11.1392 26.8737 11.3802 26.8311 11.6163C26.7882 11.8524 26.7569 12.059 26.7372 12.2361C26.724 12.3737 26.7092 12.5427 26.6929 12.7426C26.6762 12.9428 26.668 13.1542 26.668 13.3771C26.668 13.6003 26.6844 13.8215 26.7176 14.0412C26.7503 14.261 26.8096 14.4627 26.8951 14.6461C26.9806 14.8298 27.1008 14.9806 27.2557 15.0986C27.4101 15.2167 27.606 15.2822 27.843 15.2955C28.0864 15.3084 28.2987 15.2906 28.4799 15.2413C28.6607 15.1921 28.8253 15.115 28.9735 15.01C29.1216 14.9053 29.2565 14.7806 29.3784 14.6363C29.4999 14.4921 29.6201 14.3347 29.7385 14.1641C29.8506 14.4135 29.9953 14.6068 30.1731 14.7446C30.3508 14.8822 30.5384 14.9644 30.7359 14.9904C30.9331 15.0165 31.1341 14.9889 31.3382 14.9068C31.5421 14.8249 31.7264 14.6856 31.8909 14.4887C31.9994 14.3681 32.1016 14.2309 32.1975 14.0793C32.2383 14.1503 32.2815 14.2188 32.3303 14.2821C32.4916 14.4921 32.7105 14.6363 32.987 14.715C33.2832 14.7937 33.5725 14.807 33.8556 14.7544C34.1386 14.702 34.4086 14.6068 34.6651 14.4691C34.9219 14.3314 35.1604 14.1659 35.3812 13.9723C35.6015 13.7789 35.794 13.5773 35.9586 13.3673C35.952 13.5182 35.9487 13.6609 35.9487 13.7952C35.9487 13.9297 35.9454 14.0755 35.939 14.233C35.6097 14.4627 35.2988 14.7381 35.006 15.0593C34.7129 15.3806 34.4561 15.7233 34.2358 16.0873C34.0152 16.4511 33.8425 16.8202 33.7177 17.1939C33.5925 17.5679 33.5315 17.9171 33.5348 18.2419C33.5381 18.5664 33.6153 18.85 33.7669 19.0926C33.918 19.3354 34.1649 19.509 34.5072 19.614C34.8628 19.7256 35.1752 19.7287 35.4454 19.6239C35.7152 19.5188 35.9503 19.345 36.1511 19.1025C36.3519 18.8599 36.5164 18.5664 36.6449 18.2221C36.7732 17.8778 36.8752 17.5187 36.9509 17.1449C37.0265 16.7712 37.0743 16.4036 37.0941 16.0431C37.1138 15.6823 37.1138 15.3608 37.0941 15.0789C37.6601 14.8429 38.1241 14.5445 38.4861 14.1837C38.8481 13.8233 39.1476 13.4428 39.3846 13.0426C39.4569 12.9443 39.4816 12.8262 39.4587 12.6886C39.4354 12.5508 39.3796 12.4327 39.2909 12.3344Z" fill="#0D0C23"/>
<path fill-rule="evenodd" clip-rule="evenodd" d="M51.7456 11.705C51.7653 11.5543 51.795 11.3951 51.8343 11.2279C51.8739 11.0607 51.9233 10.8983 51.9826 10.7409C52.0417 10.5836 52.1109 10.4475 52.19 10.3327C52.2688 10.218 52.3529 10.136 52.4416 10.0867C52.5306 10.0377 52.6208 10.0425 52.7132 10.1014C52.8119 10.1606 52.8726 10.2851 52.8959 10.4752C52.9187 10.6657 52.8959 10.8688 52.8267 11.0853C52.7575 11.3018 52.6342 11.505 52.4564 11.6952C52.2787 11.8855 52.0384 12.0099 51.7357 12.0689C51.7225 11.9774 51.7258 11.8559 51.7456 11.705ZM55.1664 12.1083C55.0579 12.0757 54.9543 12.0723 54.8555 12.0985C54.7568 12.1247 54.6942 12.1936 54.6681 12.3052C54.6152 12.515 54.5312 12.7298 54.416 12.9494C54.3009 13.1692 54.1595 13.3774 53.9918 13.5742C53.824 13.7709 53.6345 13.9447 53.4241 14.0955C53.2132 14.2464 52.9929 14.3546 52.7624 14.4201C52.532 14.4924 52.3411 14.5005 52.19 14.4447C52.0384 14.3891 51.9184 14.2939 51.8296 14.1595C51.7406 14.0251 51.6764 13.8627 51.6371 13.6725C51.5975 13.4823 51.5745 13.2856 51.5679 13.0822C51.9431 13.1085 52.2771 13.0414 52.5701 12.8805C52.8627 12.72 53.1113 12.5067 53.3154 12.2412C53.5192 11.9756 53.6741 11.6772 53.7793 11.346C53.8845 11.0149 53.9439 10.6853 53.957 10.3573C53.9636 10.049 53.9177 9.78843 53.8189 9.57527C53.7202 9.36222 53.5868 9.19637 53.4189 9.07843C53.2513 8.96038 53.0586 8.89147 52.8415 8.87189C52.6245 8.85216 52.4037 8.88173 52.1799 8.96038C51.9099 9.05222 51.6813 9.20135 51.4937 9.40804C51.3061 9.61459 51.1498 9.85408 51.0248 10.1261C50.8998 10.3983 50.801 10.6917 50.7287 11.0065C50.6562 11.3214 50.6035 11.6313 50.5708 11.9363C50.5411 12.21 50.5253 12.4717 50.5197 12.7243C50.5055 12.7564 50.4919 12.7872 50.4769 12.8215C50.3747 13.0545 50.2561 13.2824 50.1214 13.5053C49.9866 13.7283 49.8366 13.9153 49.6723 14.066C49.5078 14.2169 49.3366 14.2693 49.1589 14.2234C49.0535 14.1973 48.996 14.0758 48.9862 13.8595C48.9763 13.643 48.9876 13.3741 49.0205 13.0528C49.0535 12.7315 49.0914 12.3837 49.1342 12.0099C49.1768 11.6361 49.1983 11.2788 49.1983 10.9377C49.1983 10.6426 49.1423 10.359 49.0304 10.0867C48.9184 9.81477 48.7654 9.58837 48.5714 9.40804C48.3772 9.22757 48.1517 9.10788 47.8952 9.04899C47.6384 8.98982 47.362 9.02926 47.0659 9.16692C46.7696 9.30471 46.5342 9.49813 46.36 9.74737C46.1853 9.99672 46.0257 10.2589 45.881 10.5344C45.8283 10.3245 45.751 10.1295 45.6489 9.94905C45.547 9.76872 45.422 9.61133 45.2739 9.4768C45.1256 9.34252 44.9593 9.23755 44.7754 9.16204C44.5911 9.08679 44.3967 9.04899 44.1926 9.04899C43.9953 9.04899 43.8127 9.08679 43.6448 9.16204C43.477 9.23755 43.324 9.33415 43.1856 9.45221C43.0474 9.57039 42.9224 9.70307 42.8104 9.8507C42.6986 9.99823 42.5997 10.1443 42.5143 10.2884C42.5009 10.1179 42.4863 9.96878 42.47 9.84071C42.4533 9.71294 42.4237 9.60472 42.381 9.51623C42.3382 9.42762 42.2775 9.36049 42.1984 9.31455C42.1193 9.26875 42.0075 9.24567 41.8627 9.24567C41.7902 9.24567 41.7178 9.26039 41.6455 9.28984C41.573 9.31943 41.5087 9.36049 41.4529 9.4129C41.3969 9.46558 41.3543 9.52933 41.3246 9.60472C41.295 9.68011 41.287 9.7671 41.2999 9.86543C41.3065 9.93769 41.3246 10.0244 41.3543 10.1261C41.3837 10.2279 41.4117 10.3608 41.4381 10.5245C41.4645 10.6885 41.4859 10.8869 41.5024 11.1197C41.5188 11.3526 41.5236 11.6379 41.5172 11.9756C41.5104 12.3134 41.4859 12.7084 41.4431 13.161C41.4002 13.6135 41.3327 14.1382 41.2406 14.7349C41.2274 14.8726 41.2802 14.9842 41.3988 15.0694C41.5172 15.1546 41.6521 15.2037 41.8034 15.217C41.9548 15.2301 42.0981 15.2037 42.233 15.1383C42.3679 15.0726 42.4453 14.9579 42.4649 14.794C42.4846 14.4857 42.5225 14.1579 42.5785 13.8102C42.6343 13.4627 42.7035 13.1184 42.7859 12.7773C42.8681 12.4364 42.9618 12.1118 43.0672 11.8034C43.1724 11.4951 43.2894 11.223 43.4177 10.9869C43.5462 10.7508 43.6794 10.5623 43.8176 10.4213C43.9558 10.2803 44.1005 10.2098 44.2521 10.2098C44.4362 10.2098 44.5793 10.2933 44.6815 10.4605C44.7834 10.6279 44.8557 10.8428 44.8987 11.1048C44.9413 11.3673 44.9611 11.6544 44.958 11.9657C44.9545 12.2772 44.9413 12.5773 44.9185 12.8658C44.8954 13.1545 44.8691 13.4118 44.8394 13.6381C44.8098 13.8644 44.7883 14.0202 44.7754 14.1053C44.7754 14.2562 44.8328 14.3758 44.9479 14.4644C45.063 14.5529 45.1913 14.6054 45.333 14.6218C45.4747 14.6383 45.6077 14.6119 45.7329 14.543C45.8579 14.4741 45.9304 14.3579 45.9502 14.1938C46.0159 13.7217 46.1065 13.248 46.2216 12.7725C46.3367 12.297 46.4685 11.8708 46.6166 11.4936C46.7646 11.1165 46.9292 10.8082 47.1102 10.5688C47.2912 10.3296 47.4837 10.2098 47.6878 10.2098C47.793 10.2098 47.8737 10.282 47.9295 10.4262C47.9856 10.5704 48.0136 10.7671 48.0136 11.0164C48.0136 11.2001 47.9987 11.3886 47.9693 11.5821C47.9394 11.7755 47.905 11.9756 47.8655 12.1821C47.826 12.3888 47.7914 12.6002 47.7617 12.8166C47.7323 13.0332 47.7174 13.2593 47.7174 13.4954C47.7174 13.6594 47.7339 13.8496 47.7669 14.066C47.7996 14.2823 47.862 14.4875 47.9543 14.6808C48.0465 14.8744 48.1732 15.0383 48.3346 15.1727C48.4958 15.3071 48.7014 15.3743 48.9514 15.3743C49.3268 15.3743 49.6589 15.294 49.9487 15.1333C50.2382 14.9727 50.4868 14.7629 50.6941 14.5038C50.7048 14.4902 50.7147 14.4758 50.7252 14.4623C50.7411 14.5006 50.7551 14.5412 50.773 14.5776C50.9145 14.8661 51.107 15.089 51.3506 15.2465C51.594 15.4039 51.8805 15.4908 52.2097 15.5072C52.5386 15.5235 52.8973 15.4628 53.2859 15.3252C53.5752 15.2202 53.8271 15.089 54.041 14.9317C54.2548 14.7743 54.4473 14.5825 54.6185 14.3562C54.7898 14.1299 54.9459 13.8692 55.0876 13.5742C55.2292 13.2789 55.3722 12.9413 55.5169 12.5608C55.5433 12.4561 55.5186 12.3626 55.443 12.2805C55.3672 12.1986 55.2752 12.1412 55.1664 12.1083Z" fill="#0D0C23"/>
<path fill-rule="evenodd" clip-rule="evenodd" d="M60.5323 11.011C60.4993 11.2046 60.455 11.4179 60.399 11.6505C60.343 11.8834 60.2724 12.1244 60.1867 12.3736C60.1013 12.6228 59.9958 12.8475 59.8708 13.0474C59.7458 13.2476 59.6025 13.4065 59.4415 13.5245C59.28 13.6426 59.0943 13.6918 58.8836 13.6721C58.7782 13.6591 58.6975 13.5869 58.6417 13.4556C58.5856 13.3246 58.5562 13.1573 58.5527 12.9539C58.5494 12.7508 58.5675 12.5277 58.6071 12.285C58.6466 12.0425 58.7073 11.8046 58.7899 11.5718C58.8721 11.3391 58.9724 11.1242 59.0908 10.9274C59.2094 10.7307 59.3459 10.5782 59.5006 10.47C59.6552 10.3618 59.8249 10.3111 60.009 10.3175C60.1933 10.3241 60.3908 10.4158 60.6015 10.5929C60.5881 10.6783 60.5652 10.8177 60.5323 11.011ZM64.0421 11.7636C63.94 11.7112 63.8347 11.6998 63.7262 11.7293C63.6177 11.7587 63.5402 11.8588 63.4943 12.0293C63.468 12.213 63.4087 12.4293 63.3166 12.6785C63.2244 12.9277 63.1107 13.164 62.976 13.3868C62.8409 13.6098 62.6863 13.7951 62.5118 13.9426C62.3374 14.0903 62.1515 14.1575 61.9542 14.1442C61.7895 14.1312 61.6741 14.0476 61.6086 13.8935C61.5425 13.7393 61.5082 13.546 61.5049 13.313C61.5014 13.0804 61.5246 12.818 61.5738 12.5261C61.6233 12.2343 61.6826 11.9442 61.7516 11.6554C61.8208 11.3669 61.8916 11.0898 61.9641 10.8242C62.0364 10.5586 62.0955 10.334 62.1418 10.1504C62.1943 9.98639 62.1778 9.84712 62.0924 9.73217C62.0067 9.61759 61.8998 9.53547 61.7715 9.48632C61.643 9.43714 61.5129 9.42402 61.3813 9.44698C61.2497 9.46996 61.1643 9.54047 61.1247 9.65841C60.7363 9.32394 60.3628 9.14359 60.0043 9.1174C59.6453 9.09118 59.3146 9.16993 59.0119 9.35351C58.709 9.5371 58.4409 9.80268 58.2074 10.1504C57.9736 10.4981 57.7844 10.8767 57.6394 11.2866C57.4946 11.6964 57.4042 12.1146 57.368 12.5409C57.3318 12.9672 57.3598 13.3558 57.452 13.7066C57.5443 14.0574 57.707 14.3445 57.9407 14.5673C58.1742 14.7903 58.4919 14.9019 58.8935 14.9019C59.0712 14.9019 59.2423 14.8658 59.4069 14.7937C59.5712 14.7214 59.7228 14.6362 59.8609 14.5378C59.9991 14.4395 60.1208 14.3361 60.2265 14.2279C60.3315 14.1197 60.4139 14.0296 60.4732 13.9574C60.5191 14.1935 60.5949 14.3937 60.7003 14.5575C60.8053 14.7214 60.9256 14.856 61.0605 14.9608C61.1954 15.0656 61.337 15.1427 61.4851 15.192C61.6332 15.2412 61.7765 15.2658 61.9145 15.2658C62.224 15.2658 62.5133 15.1608 62.7835 14.9509C63.0532 14.7412 63.2952 14.4837 63.5091 14.1788C63.7229 13.8737 63.8992 13.5525 64.0371 13.2146C64.1755 12.8769 64.2676 12.5769 64.3137 12.3145C64.3598 12.2161 64.3514 12.1129 64.289 12.0047C64.2264 11.8965 64.1442 11.8162 64.0421 11.7636Z" fill="#0D0C23"/>
<path fill-rule="evenodd" clip-rule="evenodd" d="M81.8138 17.1945C81.758 17.4173 81.6707 17.6062 81.5521 17.7602C81.4337 17.9142 81.2856 17.9946 81.1079 18.0013C80.9961 18.0077 80.9104 17.9486 80.8511 17.8243C80.792 17.6995 80.7508 17.5388 80.7277 17.3422C80.7047 17.1453 80.6948 16.9256 80.6981 16.683C80.7014 16.4404 80.7113 16.2009 80.7277 15.9649C80.744 15.7289 80.764 15.509 80.787 15.3058C80.8099 15.1024 80.828 14.9452 80.8412 14.8337C81.065 14.8599 81.2512 14.9565 81.3991 15.1238C81.5471 15.291 81.6608 15.4894 81.7397 15.719C81.8187 15.9485 81.8647 16.1962 81.878 16.4616C81.891 16.7273 81.8696 16.9715 81.8138 17.1945ZM78.2397 17.1945C78.1839 17.4173 78.0966 17.6062 77.9782 17.7602C77.8598 17.9142 77.7115 17.9946 77.5338 18.0013C77.422 18.0077 77.3365 17.9486 77.2772 17.8243C77.2179 17.6995 77.1767 17.5388 77.1539 17.3422C77.1306 17.1453 77.1207 16.9256 77.1242 16.683C77.1273 16.4404 77.1372 16.2009 77.1539 15.9649C77.1701 15.7289 77.1899 15.509 77.213 15.3058C77.236 15.1024 77.2539 14.9452 77.2673 14.8337C77.491 14.8599 77.6771 14.9565 77.825 15.1238C77.9733 15.291 78.0867 15.4894 78.1658 15.719C78.2449 15.9485 78.2908 16.1962 78.304 16.4616C78.3169 16.7273 78.2955 16.9715 78.2397 17.1945ZM74.5722 11.607C74.5654 11.7643 74.5505 11.9037 74.5275 12.025C74.5044 12.1465 74.4733 12.2234 74.4338 12.2562C74.3613 12.2168 74.2723 12.1153 74.1671 11.9512C74.0619 11.7874 73.9797 11.6019 73.9202 11.3953C73.8611 11.1888 73.8428 10.9856 73.866 10.7854C73.8889 10.5855 73.9927 10.4299 74.177 10.3182C74.2493 10.2789 74.3119 10.2936 74.3646 10.3625C74.4173 10.4314 74.4599 10.5313 74.4931 10.6625C74.5258 10.7938 74.5487 10.9446 74.5621 11.115C74.5753 11.2856 74.5785 11.4495 74.5722 11.607ZM73.6982 13.5695C73.5961 13.6776 73.4824 13.7711 73.3576 13.8498C73.2324 13.9286 73.1041 13.9876 72.9725 14.0269C72.8407 14.0664 72.7223 14.0761 72.6171 14.0564C72.321 13.9975 72.0938 13.8694 71.9359 13.6727C71.7779 13.476 71.6774 13.2449 71.6348 12.9793C71.592 12.7136 71.5967 12.43 71.6496 12.1283C71.7022 11.8267 71.7909 11.5464 71.9161 11.2873C72.0411 11.0282 72.1927 10.8051 72.3702 10.6183C72.5479 10.4314 72.7421 10.3151 72.9528 10.269C72.8737 10.6035 72.8475 10.9495 72.8737 11.3069C72.9 11.6643 72.9857 12.0004 73.1305 12.3151C73.2225 12.5056 73.3329 12.6792 73.4612 12.8366C73.5897 12.9941 73.746 13.1285 73.9303 13.2399C73.8776 13.3515 73.8001 13.4613 73.6982 13.5695ZM84.6226 11.7054C84.6424 11.5546 84.6719 11.3953 84.7116 11.2281C84.7509 11.061 84.8004 10.8986 84.8595 10.7412C84.9188 10.5838 84.988 10.4477 85.067 10.333C85.1461 10.2183 85.2297 10.1362 85.3187 10.087C85.4076 10.0379 85.498 10.0427 85.5901 10.1018C85.6889 10.1609 85.7497 10.2855 85.7727 10.4755C85.7958 10.6659 85.7727 10.869 85.7037 11.0856C85.6346 11.302 85.5112 11.5053 85.3335 11.6954C85.156 11.8858 84.9155 12.0103 84.6127 12.0693C84.5996 11.9776 84.6029 11.8562 84.6226 11.7054ZM88.6016 11.7054C88.6213 11.5546 88.6508 11.3953 88.6903 11.2281C88.7299 11.061 88.7793 10.8986 88.8386 10.7412C88.8977 10.5838 88.9667 10.4477 89.0457 10.333C89.1248 10.2183 89.2088 10.1362 89.2976 10.087C89.3865 10.0379 89.477 10.0427 89.569 10.1018C89.6678 10.1609 89.7286 10.2855 89.7517 10.4755C89.7747 10.6659 89.7517 10.869 89.6827 11.0856C89.6135 11.302 89.4901 11.5053 89.3124 11.6954C89.1347 11.8858 88.8944 12.0103 88.5917 12.0693C88.5785 11.9776 88.5818 11.8562 88.6016 11.7054ZM92.299 12.2808C92.2232 12.1989 92.1311 12.1415 92.0226 12.1086C91.9139 12.0759 91.8103 12.0726 91.7115 12.0989C91.6128 12.1251 91.55 12.194 91.5239 12.3054C91.4711 12.5153 91.3873 12.7301 91.2722 12.9496C91.1569 13.1695 91.0154 13.3777 90.8476 13.5744C90.6798 13.7711 90.4905 13.9451 90.2801 14.0958C90.0692 14.2467 89.8489 14.3549 89.6186 14.4203C89.388 14.4927 89.1971 14.5008 89.0457 14.445C88.8944 14.3893 88.7743 14.2943 88.6854 14.1598C88.5966 14.0253 88.5326 13.8631 88.4928 13.6727C88.4535 13.4827 88.4302 13.286 88.4238 13.0826C88.799 13.1089 89.1331 13.0417 89.4259 12.8809C89.7187 12.7202 89.9673 12.5069 90.1715 12.2414C90.3754 11.9759 90.5301 11.6775 90.6353 11.3463C90.7405 11.0151 90.7998 10.6856 90.8132 10.3576C90.8196 10.0494 90.7735 9.78863 90.6748 9.57547C90.5762 9.36244 90.443 9.19669 90.2751 9.07876C90.1071 8.96058 89.9148 8.8918 89.6973 8.87209C89.4802 8.85236 89.2597 8.88208 89.0359 8.96058C88.7659 9.05254 88.5373 9.2017 88.3499 9.40824C88.1623 9.61491 88.0058 9.8544 87.8808 10.1264C87.7556 10.3987 87.657 10.692 87.5845 11.0068C87.512 11.3216 87.4595 11.6316 87.4267 11.9365C87.3946 12.2324 87.3773 12.5156 87.3734 12.7866C87.3485 12.8407 87.3219 12.895 87.2933 12.9496C87.178 13.1695 87.0365 13.3777 86.8687 13.5744C86.7011 13.7711 86.5116 13.9451 86.3011 14.0958C86.0905 14.2467 85.8699 14.3549 85.6397 14.4203C85.4091 14.4927 85.2184 14.5008 85.067 14.445C84.9155 14.3893 84.7954 14.2943 84.7067 14.1598C84.6179 14.0253 84.5537 13.8631 84.5141 13.6727C84.4746 13.4827 84.4515 13.286 84.4449 13.0826C84.8201 13.1089 85.1541 13.0417 85.4472 12.8809C85.7398 12.7202 85.9883 12.5069 86.1924 12.2414C86.3965 11.9759 86.5511 11.6775 86.6564 11.3463C86.7616 11.0151 86.8211 10.6856 86.8341 10.3576C86.8407 10.0494 86.7948 9.78863 86.6961 9.57547C86.5973 9.36244 86.4638 9.19669 86.296 9.07876C86.1282 8.96058 85.9358 8.8918 85.7186 8.87209C85.5013 8.85236 85.2808 8.88208 85.0571 8.96058C84.787 9.05254 84.5584 9.2017 84.371 9.40824C84.1834 9.61491 84.0269 9.8544 83.9019 10.1264C83.7769 10.3987 83.6783 10.692 83.6058 11.0068C83.5333 11.3216 83.4806 11.6316 83.4478 11.9365C83.4291 12.1085 83.4167 12.2752 83.4075 12.4389C83.3438 12.4929 83.2818 12.5471 83.2157 12.6004C82.9888 12.7841 82.7499 12.9496 82.4999 13.0973C82.2497 13.2449 81.9896 13.3662 81.7201 13.4613C81.4499 13.5564 81.1736 13.6138 80.8906 13.6334L81.5028 7.10139C81.5424 6.9636 81.5226 6.84243 81.4435 6.73747C81.3647 6.63251 81.2625 6.56037 81.1375 6.52106C81.0125 6.48163 80.8791 6.48498 80.7376 6.5308C80.5959 6.57685 80.4794 6.68181 80.3871 6.84554C80.341 7.0949 80.2932 7.43585 80.244 7.86867C80.1946 8.30149 80.1452 8.77374 80.0959 9.2853C80.0465 9.79687 79.9971 10.3248 79.9479 10.869C79.8985 11.4136 79.8556 11.9218 79.8194 12.3939C79.8177 12.4149 79.8165 12.4338 79.8149 12.4545C79.7572 12.5032 79.7014 12.5523 79.6417 12.6004C79.4147 12.7841 79.1759 12.9496 78.9259 13.0973C78.6757 13.2449 78.4158 13.3662 78.146 13.4613C77.8761 13.5564 77.5995 13.6138 77.3165 13.6334L77.9288 7.10139C77.9683 6.9636 77.9485 6.84243 77.8697 6.73747C77.7906 6.63251 77.6885 6.56037 77.5635 6.52106C77.4385 6.48163 77.305 6.48498 77.1635 6.5308C77.0221 6.57685 76.9053 6.68181 76.8131 6.84554C76.7669 7.0949 76.7194 7.43585 76.6701 7.86867C76.6205 8.30149 76.5713 8.77374 76.5219 9.2853C76.4725 9.79687 76.4232 10.3248 76.3738 10.869C76.3246 11.4136 76.2816 11.9218 76.2455 12.3939C76.2447 12.4034 76.2441 12.412 76.2433 12.4215C76.1399 12.4693 76.0272 12.5112 75.9047 12.5464C75.7797 12.5826 75.6382 12.6039 75.4803 12.6104C75.5067 12.4922 75.5279 12.3611 75.5443 12.2168C75.5608 12.0726 75.5742 11.9218 75.5841 11.7643C75.594 11.607 75.5971 11.4495 75.594 11.2921C75.5905 11.1346 75.5822 10.9905 75.5693 10.8592C75.5361 10.5774 75.4754 10.3101 75.3866 10.0575C75.2976 9.80511 75.1776 9.5937 75.0262 9.42297C74.8747 9.25248 74.6856 9.13768 74.4583 9.07876C74.2314 9.01972 73.9663 9.03932 73.6638 9.13767C73.2159 9.07876 72.8129 9.11982 72.4542 9.26072C72.0955 9.40188 71.7843 9.60667 71.5211 9.87549C71.258 10.1446 71.0424 10.4608 70.8745 10.8249C70.7067 11.1888 70.5947 11.5627 70.5389 11.9462C70.5152 12.1088 70.5037 12.2707 70.5002 12.4322C70.3982 12.6401 70.2866 12.8218 70.1637 12.9743C69.9893 13.1908 69.8082 13.3678 69.6206 13.5055C69.433 13.6433 69.2471 13.7482 69.063 13.8204C68.8785 13.8926 68.7139 13.9418 68.5692 13.9679C68.3981 14.0007 68.2335 14.0041 68.0756 13.9778C67.9176 13.9517 67.7727 13.8762 67.6413 13.7515C67.5358 13.6597 67.4551 13.5121 67.3993 13.3088C67.3433 13.1055 67.3106 12.8745 67.3007 12.6153C67.2908 12.3562 67.3007 12.0856 67.3301 11.8037C67.3598 11.5218 67.4106 11.2544 67.4831 11.002C67.5556 10.7495 67.6475 10.5232 67.7597 10.323C67.8713 10.1232 68.0031 9.98045 68.1546 9.89522C68.2399 9.90844 68.2928 9.95912 68.3126 10.0476C68.3324 10.1362 68.3371 10.2412 68.3272 10.3625C68.3175 10.4839 68.3027 10.6085 68.2829 10.7363C68.2632 10.8642 68.2533 10.9709 68.2533 11.056C68.2862 11.2331 68.3503 11.3709 68.4458 11.4692C68.5412 11.5676 68.6483 11.6251 68.7667 11.6413C68.8851 11.6578 69.0018 11.63 69.1174 11.5577C69.2323 11.4857 69.326 11.3709 69.3987 11.2134C69.405 11.22 69.4149 11.2232 69.4281 11.2232L69.5665 9.97397C69.6058 9.80335 69.5795 9.6526 69.4874 9.52144C69.3952 9.39026 69.2734 9.31477 69.1221 9.29517C68.9312 9.01972 68.6728 8.87384 68.347 8.85737C68.0212 8.84102 67.6872 8.94758 67.3449 9.17711C67.1343 9.32812 66.9483 9.53616 66.7871 9.80175C66.6256 10.0675 66.4943 10.3625 66.3923 10.6871C66.29 11.0117 66.2177 11.3545 66.1751 11.7152C66.1322 12.0759 66.124 12.4268 66.1502 12.7677C66.1765 13.1089 66.2375 13.4302 66.333 13.7318C66.4284 14.0335 66.5616 14.286 66.7329 14.4892C66.8777 14.6663 67.042 14.796 67.2263 14.878C67.4106 14.96 67.6032 15.0106 67.804 15.0303C68.0047 15.0499 68.2039 15.0417 68.4013 15.0058C68.5988 14.9698 68.7864 14.919 68.9641 14.8532C69.1944 14.7681 69.4316 14.6598 69.675 14.5286C69.9184 14.3976 70.1521 14.2401 70.376 14.0564C70.4938 13.9598 70.607 13.8545 70.7166 13.7415C70.7664 13.8648 70.8222 13.9841 70.8894 14.0958C71.0671 14.3909 71.3072 14.6303 71.6101 14.8139C71.9126 14.9975 72.2847 15.0859 72.7256 15.0795C73.1997 15.0729 73.6373 14.9533 74.0388 14.7205C74.4404 14.4878 74.7694 14.1449 75.0262 13.6925C75.4107 13.6925 75.789 13.6293 76.1609 13.5039C76.1578 13.5436 76.1545 13.5854 76.1516 13.6237C76.1255 13.9713 76.1121 14.2073 76.1121 14.3319C76.1057 14.5483 76.0909 14.8156 76.0678 15.1335C76.0447 15.4517 76.0299 15.7862 76.0233 16.1369C76.0169 16.4878 76.0299 16.842 76.0629 17.1995C76.0958 17.5568 76.1648 17.8815 76.2702 18.1735C76.3753 18.4651 76.525 18.7128 76.7194 18.9163C76.9133 19.1193 77.1685 19.2408 77.4846 19.2802C77.8202 19.3259 78.1098 19.267 78.3534 19.1031C78.5968 18.9389 78.7943 18.7145 78.9458 18.4293C79.0972 18.1439 79.2039 17.8144 79.2667 17.4406C79.3291 17.0666 79.3472 16.6912 79.321 16.314C79.2945 15.9369 79.2253 15.5812 79.1135 15.2469C79.0017 14.9123 78.8468 14.6368 78.6495 14.4203C78.7681 14.3877 78.9094 14.3254 79.0741 14.2335C79.2385 14.1417 79.4079 14.0384 79.5826 13.9236C79.6254 13.8954 79.6676 13.8657 79.7104 13.8367C79.6944 14.0691 79.6862 14.2348 79.6862 14.3319C79.6798 14.5483 79.6649 14.8156 79.6417 15.1335C79.6188 15.4517 79.604 15.7862 79.5974 16.1369C79.5908 16.4878 79.604 16.842 79.6369 17.1995C79.6697 17.5568 79.7389 17.8815 79.8441 18.1735C79.9493 18.4651 80.0992 18.7128 80.2932 18.9163C80.4874 19.1193 80.7426 19.2408 81.0587 19.2802C81.3941 19.3259 81.6836 19.267 81.9273 19.1031C82.1709 18.9389 82.3683 18.7145 82.5197 18.4293C82.6711 18.1439 82.7779 17.8144 82.8405 17.4406C82.9031 17.0666 82.9211 16.6912 82.8949 16.314C82.8685 15.9369 82.7994 15.5812 82.6877 15.2469C82.5755 14.9123 82.4211 14.6368 82.2234 14.4203C82.342 14.3877 82.4835 14.3254 82.648 14.2335C82.8125 14.1417 82.982 14.0384 83.1566 13.9236C83.2472 13.8639 83.3372 13.8024 83.4272 13.7391C83.461 14.0599 83.5339 14.3412 83.65 14.5778C83.7917 14.8665 83.9841 15.0894 84.2277 15.2469C84.4711 15.4041 84.7575 15.4911 85.0868 15.5075C85.4159 15.5237 85.7744 15.4632 86.163 15.3254C86.4525 15.2205 86.7041 15.0894 86.9181 14.932C87.1319 14.7745 87.3244 14.5827 87.4957 14.3565C87.5056 14.3434 87.5149 14.3292 87.5246 14.316C87.555 14.4078 87.5888 14.4961 87.629 14.5778C87.7706 14.8665 87.9632 15.0894 88.2066 15.2469C88.45 15.4041 88.7364 15.4911 89.0655 15.5075C89.3946 15.5237 89.7533 15.4632 90.1417 15.3254C90.4314 15.2205 90.6831 15.0894 90.897 14.932C91.1108 14.7745 91.3033 14.5827 91.4747 14.3565C91.6458 14.1301 91.8019 13.8694 91.9435 13.5744C92.085 13.2792 92.2281 12.9416 92.3731 12.5611C92.3993 12.4563 92.3746 12.3628 92.299 12.2808Z" fill="#0D0C23"/>
</g>
<defs>
<clipPath id="clip0_160_677">
<rect width="93" height="21" fill="white" transform="translate(0.230225 0.727295)"/>
</clipPath>
</defs>
</svg>
