<svg width="60" height="42" viewBox="0 0 60 42" fill="none" xmlns="http://www.w3.org/2000/svg">
<g clip-path="url(#clip0_238_1328)">
<path d="M57.8647 6.4977C57.1859 3.95033 55.1861 1.94438 52.6464 1.26359C48.0435 0.0263336 29.5861 0.0263329 29.5861 0.0263329C29.5861 0.0263329 11.1288 0.0263336 6.52578 1.26359C3.9863 1.94438 1.98618 3.95033 1.30746 6.4977C0.0740814 11.1146 0.0740814 20.7475 0.0740814 20.7475C0.0740814 20.7475 0.0740814 30.3803 1.30746 34.9977C1.98618 37.5448 3.9863 39.5507 6.52578 40.2318C11.1288 41.4688 29.5861 41.4688 29.5861 41.4688C29.5861 41.4688 48.0435 41.4688 52.6464 40.2318C55.1861 39.5507 57.1859 37.5448 57.8647 34.9977C59.0981 30.3803 59.0981 20.7475 59.0981 20.7475C59.0981 20.7475 59.0981 11.1146 57.8647 6.4977Z" fill="#ED1D24"/>
<path d="M23.5496 29.4934L38.9763 20.7479L23.5496 12.0015V29.4934Z" fill="white"/>
</g>
<defs>
<clipPath id="clip0_238_1328">
<rect width="59.024" height="41.4424" fill="white" transform="translate(0.0740509 0.026123)"/>
</clipPath>
</defs>
</svg>
