<svg width="22" height="21" viewBox="0 0 22 21" fill="none" xmlns="http://www.w3.org/2000/svg">
<path d="M15.302 14.2716C14.9446 14.2716 14.6548 14.5614 14.6548 14.9188C14.6548 15.2762 14.9446 15.566 15.302 15.566V14.2716ZM12.929 13.193C12.929 13.5504 13.2188 13.8402 13.5762 13.8402C13.9336 13.8402 14.2234 13.5504 14.2234 13.193H12.929ZM5.04599 6.73267C4.69277 6.67796 4.36208 6.91996 4.30738 7.27319C4.25267 7.62641 4.49467 7.9571 4.8479 8.0118L5.04599 6.73267ZM8.16521 8.86747C8.49859 8.9964 8.87335 8.83064 9.00227 8.49727C9.1312 8.1639 8.96544 7.78913 8.63207 7.66021L8.16521 8.86747ZM11.6346 5.47271C11.6346 5.11527 11.3448 4.82552 10.9874 4.82552C10.63 4.82552 10.3402 5.11527 10.3402 5.47271H11.6346ZM10.9874 18.3705V19.0177C11.3448 19.0177 11.6346 18.7279 11.6346 18.3705H10.9874ZM18.9695 12.3301C18.9695 12.6875 19.2592 12.9772 19.6167 12.9772C19.9741 12.9772 20.2639 12.6875 20.2639 12.3301H18.9695ZM5.04599 10.1844C4.69277 10.1297 4.36208 10.3716 4.30738 10.7249C4.25267 11.0781 4.49467 11.4088 4.8479 11.4635L5.04599 10.1844ZM6.51447 11.7999C6.86104 11.8873 7.21288 11.6772 7.30032 11.3306C7.38776 10.9841 7.17769 10.6322 6.83111 10.5447L6.51447 11.7999ZM16.3807 13.193C16.3807 13.7887 15.8978 14.2716 15.302 14.2716V15.566C16.6126 15.566 17.6751 14.5036 17.6751 13.193H16.3807ZM14.2234 13.193C14.2234 12.5972 14.7063 12.1143 15.302 12.1143V10.8199C13.9914 10.8199 12.929 11.8824 12.929 13.193H14.2234ZM15.302 12.1143C15.8978 12.1143 16.3807 12.5972 16.3807 13.193H17.6751C17.6751 11.8824 16.6126 10.8199 15.302 10.8199V12.1143ZM4.8479 8.0118C5.90823 8.17602 7.0791 8.44747 8.16521 8.86747L8.63207 7.66021C7.43623 7.19778 6.17019 6.90677 5.04599 6.73267L4.8479 8.0118ZM10.3402 5.47271V18.3705H11.6346V5.47271H10.3402ZM4.00646 3.49071C5.88448 3.70292 8.32683 4.26902 10.0265 5.46002L10.7693 4.39997C8.80377 3.02268 6.10236 2.42492 4.15179 2.2045L4.00646 3.49071ZM4.00646 16.7462C5.88448 16.9583 8.32683 17.5244 10.0265 18.7154L10.7693 17.6554C8.80377 16.2781 6.10236 15.6804 4.15179 15.46L4.00646 16.7462ZM1.71098 4.5078V14.2285H3.00536V4.5078H1.71098ZM4.15179 15.46C3.5048 15.3868 3.00536 14.8489 3.00536 14.2285H1.71098C1.71098 15.5602 2.75864 16.6052 4.00646 16.7462L4.15179 15.46ZM4.15179 2.2045C2.76076 2.04732 1.71098 3.20833 1.71098 4.5078H3.00536C3.00536 3.85506 3.50267 3.43378 4.00646 3.49071L4.15179 2.2045ZM17.8231 2.2045C15.8725 2.42492 13.171 3.02268 11.2056 4.39997L11.9484 5.46002C13.648 4.26902 16.0903 3.70292 17.9684 3.49071L17.8231 2.2045ZM18.9695 4.5078V12.3301H20.2639V4.5078H18.9695ZM17.9684 3.49071C18.4722 3.43378 18.9695 3.85506 18.9695 4.5078H20.2639C20.2639 3.20833 19.2141 2.04732 17.8231 2.2045L17.9684 3.49071ZM10.0265 5.46002C10.6017 5.86304 11.3731 5.86304 11.9484 5.46002L11.2056 4.39997C11.0763 4.49055 10.8985 4.49055 10.7693 4.39997L10.0265 5.46002ZM10.0265 18.7154C10.3151 18.9177 10.6524 19.0177 10.9874 19.0177V17.7233C10.909 17.7233 10.8329 17.6999 10.7693 17.6554L10.0265 18.7154ZM4.8479 11.4635C5.38225 11.5463 5.94632 11.6565 6.51447 11.7999L6.83111 10.5447C6.2193 10.3905 5.6153 10.2725 5.04599 10.1844L4.8479 11.4635Z" fill="#E5E5E5"/>
<path d="M16.165 17.5077C16.165 17.9843 15.7787 18.3706 15.3021 18.3706C14.8255 18.3706 14.4391 17.9843 14.4391 17.5077C14.4391 17.0311 14.8255 16.6448 15.3021 16.6448C15.7787 16.6448 16.165 17.0311 16.165 17.5077Z" fill="#E5E5E5"/>
</svg>
