<svg width="95" height="23" viewBox="0 0 95 23" fill="none" xmlns="http://www.w3.org/2000/svg">
<g clip-path="url(#clip0_170_597)">
<mask id="mask0_170_597" style="mask-type:luminance" maskUnits="userSpaceOnUse" x="0" y="0" width="94" height="22">
<path d="M93.3318 0.95459H0.331787V21.9546H93.3318V0.95459Z" fill="white"/>
</mask>
<g mask="url(#mask0_170_597)">
<path d="M12.886 6.04395L12.872 6.03569L12.8394 6.02576C12.8526 6.0368 12.8689 6.0432 12.886 6.04395Z" fill="#0D0C22"/>
<path d="M12.8925 6.04171C12.89 6.04141 12.8878 6.04086 12.8856 6.0401V6.04461C12.8881 6.04429 12.8903 6.04327 12.8925 6.04171Z" fill="#0D0C22"/>
<path d="M12.8853 6.04502H12.8894V6.0426L12.8853 6.04502Z" fill="#0D0C22"/>
<path d="M13.0757 7.48201L13.0994 7.46853L13.1082 7.46355L13.1161 7.45502C13.1013 7.4615 13.0875 7.47064 13.0757 7.48201Z" fill="#0D0C22"/>
<path d="M12.9256 6.07574L12.9024 6.0537L12.8867 6.04517C12.8953 6.06006 12.9091 6.07103 12.9256 6.07574Z" fill="#0D0C22"/>
<path d="M7.19383 20.054C7.17533 20.0619 7.15915 20.0745 7.14673 20.0903L7.16132 20.0809C7.17123 20.0719 7.18528 20.0611 7.19383 20.054Z" fill="#0D0C22"/>
<path d="M10.5219 19.3991C10.5219 19.3785 10.5118 19.3822 10.5143 19.4556C10.5143 19.4496 10.5167 19.4436 10.5178 19.4378C10.5191 19.4249 10.5202 19.4121 10.5219 19.3991Z" fill="#0D0C22"/>
<path d="M10.1789 20.054C10.1604 20.0619 10.1442 20.0745 10.1318 20.0903L10.1464 20.0809C10.1563 20.0719 10.1703 20.0611 10.1789 20.054Z" fill="#0D0C22"/>
<path d="M4.84791 20.2102C4.83388 20.1981 4.8167 20.1899 4.79834 20.187C4.81321 20.1943 4.82807 20.2014 4.838 20.2069L4.84791 20.2102Z" fill="#0D0C22"/>
<path d="M4.32052 19.7047C4.31838 19.6833 4.31181 19.6627 4.30127 19.644C4.30874 19.6633 4.31498 19.6833 4.31999 19.7037L4.32052 19.7047Z" fill="#0D0C22"/>
<path d="M7.86377 10.668C7.13946 10.978 6.3175 11.3296 5.25222 11.3296C4.80658 11.3287 4.36311 11.2676 3.93384 11.1479L4.67062 18.7124C4.69669 19.0285 4.84074 19.3234 5.07411 19.5381C5.30749 19.7531 5.61315 19.8724 5.9304 19.8722C5.9304 19.8722 6.97507 19.9265 7.32366 19.9265C7.69882 19.9265 8.8238 19.8722 8.8238 19.8722C9.14099 19.8722 9.44658 19.7529 9.67992 19.5381C9.91324 19.3232 10.0572 19.0285 10.0833 18.7124L10.8725 10.3533C10.5198 10.2329 10.1639 10.1528 9.76266 10.1528C9.06875 10.1526 8.50966 10.3915 7.86377 10.668Z" fill="white"/>
<path d="M1.65454 7.44073L1.6675 7.45284L1.67594 7.4579C1.66944 7.45144 1.66226 7.44567 1.65454 7.44073Z" fill="#0D0C22"/>
<path d="M14.2807 6.74258L14.1699 6.18296C14.0702 5.68082 13.8443 5.20637 13.3289 5.02488C13.1638 4.96683 12.9762 4.94187 12.8495 4.82172C12.7229 4.70154 12.6854 4.51491 12.6561 4.34182C12.602 4.02416 12.5509 3.70623 12.4953 3.38912C12.4473 3.1165 12.4092 2.81022 12.2842 2.56012C12.1216 2.22428 11.7838 2.02788 11.448 1.89794C11.2758 1.83369 11.1002 1.77935 10.9219 1.73518C10.0829 1.51381 9.20073 1.43242 8.33752 1.38605C7.30146 1.32888 6.26262 1.3461 5.22901 1.43759C4.45969 1.50757 3.64941 1.59222 2.91832 1.85832C2.65111 1.95573 2.37579 2.07263 2.1726 2.27907C1.92331 2.53271 1.84192 2.92498 2.02394 3.24127C2.15335 3.46589 2.37254 3.62458 2.60501 3.72956C2.90782 3.86483 3.22406 3.96776 3.54848 4.03664C4.45182 4.23631 5.38745 4.3147 6.31031 4.34806C7.33317 4.38935 8.3577 4.35589 9.37568 4.24796C9.62743 4.22031 9.87872 4.18711 10.1295 4.14842C10.4249 4.10311 10.6145 3.71681 10.5275 3.44771C10.4233 3.12599 10.1434 3.0012 9.82681 3.04976C9.78016 3.05709 9.73377 3.06386 9.6871 3.07066L9.65348 3.07554C9.54623 3.08909 9.43898 3.10175 9.33174 3.11351C9.1102 3.13738 8.88813 3.15692 8.6655 3.1721C8.16691 3.20682 7.66694 3.22284 7.16726 3.22364C6.67627 3.22364 6.18499 3.2098 5.69507 3.17753C5.47153 3.16287 5.24855 3.14425 5.02611 3.12164C4.92492 3.11106 4.82401 3.09994 4.72309 3.08746L4.62707 3.07525L4.60618 3.07228L4.50662 3.05789C4.30316 3.02725 4.09971 2.99197 3.89843 2.94939C3.87813 2.94488 3.85995 2.93359 3.84693 2.91736C3.83392 2.90114 3.82681 2.88094 3.82681 2.86014C3.82681 2.83934 3.83392 2.81916 3.84693 2.80293C3.85995 2.7867 3.87813 2.7754 3.89843 2.77089H3.90222C4.07666 2.73372 4.25244 2.70199 4.42876 2.67431C4.48755 2.6651 4.54651 2.65604 4.60563 2.64719H4.60726C4.71767 2.63986 4.82863 2.62007 4.93849 2.60703C5.89436 2.50761 6.85592 2.47372 7.81642 2.50559C8.28272 2.51914 8.74878 2.54655 9.21292 2.59375C9.31275 2.60407 9.41205 2.61492 9.51132 2.62711C9.5493 2.63172 9.58756 2.63716 9.6258 2.64177L9.70284 2.65289C9.92746 2.68634 10.1509 2.72694 10.3731 2.7747C10.7024 2.8463 11.1253 2.86963 11.2719 3.23044C11.3184 3.34491 11.3396 3.47213 11.3654 3.59231L11.3983 3.74556C11.3992 3.74832 11.3998 3.75114 11.4002 3.75398C11.4778 4.11567 11.5555 4.47736 11.6331 4.83908C11.6389 4.86578 11.6391 4.8934 11.6335 4.92017C11.6282 4.94694 11.6172 4.97231 11.6016 4.99467C11.5859 5.01706 11.5658 5.03596 11.5425 5.05021C11.5192 5.06446 11.4931 5.07375 11.4661 5.07752H11.4638L11.4165 5.08403L11.3695 5.09026C11.2208 5.10962 11.0719 5.1277 10.923 5.14453C10.6295 5.17797 10.3355 5.20692 10.0411 5.23133C9.45607 5.27999 8.86986 5.3119 8.28246 5.32708C7.98316 5.33505 7.68395 5.33876 7.38482 5.3382C6.19421 5.33727 5.00463 5.26808 3.82193 5.13096C3.69389 5.11576 3.56586 5.09949 3.43782 5.08293C3.53709 5.0957 3.36566 5.07317 3.33094 5.06829C3.24956 5.05691 3.16818 5.04506 3.08679 5.03275C2.81361 4.99179 2.54208 4.94134 2.26945 4.89713C1.93984 4.84286 1.62463 4.87001 1.32651 5.03275C1.08179 5.16666 0.883725 5.37203 0.758727 5.62141C0.630147 5.88726 0.591907 6.17672 0.534391 6.46236C0.476876 6.74802 0.387359 7.05536 0.421275 7.34861C0.494235 7.98148 0.93669 8.49583 1.57309 8.61084C2.17178 8.71934 2.77374 8.80725 3.37732 8.8821C5.74832 9.1725 8.14366 9.20724 10.522 8.98574C10.7157 8.96764 10.9092 8.94794 11.1022 8.9266C11.1626 8.91997 11.2237 8.92691 11.281 8.94695C11.3382 8.96696 11.3903 8.99954 11.4333 9.04229C11.4764 9.08506 11.5095 9.13692 11.5299 9.19406C11.5503 9.25121 11.5577 9.3122 11.5515 9.37258L11.4912 9.95797C11.3699 11.1409 11.2486 12.3237 11.1273 13.5065C11.0007 14.7486 10.8732 15.9905 10.745 17.2323C10.7089 17.5822 10.6727 17.9319 10.6365 18.2815C10.6018 18.6256 10.5969 18.9808 10.5315 19.321C10.4285 19.8558 10.0663 20.1845 9.53791 20.3045C9.05378 20.4147 8.55922 20.4726 8.06273 20.4771C7.51233 20.48 6.96218 20.4557 6.41177 20.4586C5.8242 20.4619 5.10451 20.4077 4.65093 19.9703C4.25244 19.5863 4.19738 18.9848 4.14312 18.4648C4.07077 17.7764 3.99907 17.088 3.92801 16.3996L3.52923 12.5722L3.27124 10.0958C3.26692 10.0548 3.26257 10.0144 3.25849 9.97317C3.22759 9.67776 3.01843 9.38858 2.68884 9.40349C2.4067 9.41597 2.08607 9.65577 2.11916 9.97317L2.31041 11.8091L2.70591 15.607C2.81859 16.6858 2.93099 17.7646 3.04312 18.8437C3.06482 19.0504 3.08517 19.2578 3.10794 19.4644C3.23191 20.5941 4.09456 21.2028 5.16283 21.3741C5.78676 21.4746 6.42588 21.4952 7.05902 21.5055C7.87066 21.5185 8.69046 21.5498 9.48882 21.4028C10.6718 21.1857 11.5594 20.3958 11.686 19.1703C11.7223 18.8167 11.7585 18.4627 11.7945 18.1089C11.9148 16.9385 12.0349 15.7679 12.1549 14.5973L12.547 10.7723L12.727 9.01937C12.7358 8.93245 12.7727 8.85072 12.8316 8.78628C12.8907 8.72185 12.9689 8.67811 13.0546 8.66158C13.3929 8.59564 13.7163 8.48308 13.957 8.22563C14.34 7.81573 14.4162 7.28133 14.2807 6.74258ZM1.55573 7.12075C1.56087 7.1183 1.55138 7.16251 1.54732 7.18314C1.5465 7.15194 1.54813 7.12427 1.55573 7.12075ZM1.58855 7.37465C1.59127 7.37276 1.5994 7.38361 1.6078 7.39663C1.59506 7.38468 1.58719 7.37575 1.58855 7.37465ZM1.62084 7.41724C1.63874 7.44953 1.6325 7.43705 1.62084 7.41724ZM1.68567 7.46987H1.68729C1.68729 7.47177 1.69028 7.47366 1.69137 7.47556C1.68956 7.47348 1.68783 7.47156 1.68567 7.46987ZM13.039 7.39119C12.9175 7.50676 12.7342 7.56048 12.5534 7.58734C10.5242 7.88844 8.46557 8.04089 6.4142 7.97361C4.94609 7.92343 3.49342 7.7604 2.03994 7.55505C1.89752 7.53497 1.74318 7.50894 1.64524 7.40396C1.46077 7.20592 1.55138 6.80714 1.5994 6.56789C1.64335 6.34871 1.72745 6.05654 1.98813 6.02534C2.39504 5.9776 2.8676 6.14931 3.27017 6.21034C3.75484 6.28431 4.24132 6.34354 4.72962 6.38804C6.81352 6.57792 8.93242 6.54835 11.0071 6.27058C11.3852 6.21975 11.762 6.16072 12.1374 6.09344C12.472 6.03347 12.8427 5.92091 13.0449 6.26732C13.1835 6.50332 13.2018 6.81908 13.1804 7.08574C13.1738 7.20192 13.1237 7.31121 13.039 7.39119Z" fill="#0D0C22"/>
<path fill-rule="evenodd" clip-rule="evenodd" d="M25.3466 13.0292C25.2282 13.2553 25.0653 13.4522 24.858 13.6193C24.6506 13.7866 24.4089 13.9227 24.1323 14.0276C23.8559 14.1327 23.5777 14.2032 23.2981 14.2391C23.0182 14.2752 22.7466 14.2721 22.4836 14.2292C22.2203 14.1867 21.9962 14.0998 21.8121 13.9685L22.0197 11.8142C22.2104 11.7487 22.4505 11.6814 22.7402 11.6125C23.0298 11.5437 23.3275 11.4944 23.6337 11.465C23.94 11.4354 24.2293 11.4389 24.5025 11.4749C24.7756 11.5109 24.9912 11.5978 25.1492 11.7356C25.2348 11.8142 25.3073 11.8994 25.3664 11.9913C25.4257 12.0832 25.4618 12.1782 25.4751 12.2766C25.5079 12.552 25.4653 12.8029 25.3466 13.0292ZM22.3354 8.44003C22.4735 8.35479 22.6399 8.27928 22.8339 8.21363C23.0281 8.14825 23.2272 8.10218 23.4313 8.07599C23.6352 8.0499 23.8343 8.0464 24.0287 8.06612C24.2227 8.08583 24.394 8.13989 24.5421 8.22837C24.6901 8.31698 24.8003 8.44491 24.8728 8.61202C24.9451 8.77937 24.9649 8.9909 24.9319 9.24662C24.9058 9.44993 24.8248 9.62215 24.6901 9.76307C24.5553 9.90421 24.3905 10.0221 24.1965 10.1173C24.0024 10.2125 23.7966 10.2879 23.5796 10.3434C23.3621 10.3993 23.1531 10.4404 22.9525 10.4665C22.7518 10.4928 22.5773 10.5093 22.4293 10.5156C22.2812 10.5222 22.184 10.5255 22.1379 10.5255L22.3354 8.44003ZM26.4129 11.6371C26.3077 11.4077 26.1662 11.206 25.9885 11.0321C25.8108 10.8583 25.5999 10.7322 25.3565 10.6534C25.4618 10.5682 25.5655 10.4338 25.6677 10.2501C25.7696 10.0666 25.8567 9.8664 25.9292 9.64999C26.0015 9.43346 26.0511 9.21555 26.0773 8.99578C26.1034 8.77612 26.0935 8.58755 26.0478 8.43004C25.9356 8.03668 25.7597 7.7284 25.5194 7.50538C25.2791 7.28249 24.9994 7.12835 24.6803 7.043C24.3609 6.95801 24.0089 6.93979 23.6239 6.98896C23.2388 7.03812 22.8455 7.13484 22.4441 7.27911C22.4441 7.24641 22.4474 7.21198 22.454 7.1759C22.4604 7.13997 22.4637 7.10214 22.4637 7.0627C22.4637 6.96437 22.4144 6.87924 22.3156 6.80698C22.217 6.73485 22.1035 6.6923 21.9752 6.67906C21.8467 6.66609 21.7217 6.69379 21.5998 6.76269C21.4781 6.83157 21.3941 6.95801 21.3482 7.14133C21.2954 7.73166 21.2427 8.34493 21.1902 8.98093C21.1375 9.61717 21.0815 10.2599 21.0224 10.9093C20.9631 11.5585 20.9038 12.2028 20.8447 12.8422C20.7854 13.4817 20.7261 14.0965 20.667 14.6866C20.6867 14.8637 20.7359 15.0015 20.815 15.0999C20.8939 15.1983 20.9861 15.2574 21.0914 15.277C21.1966 15.2967 21.307 15.2785 21.4221 15.2228C21.5372 15.1673 21.6377 15.0703 21.7234 14.9326C21.9865 15.0769 22.2829 15.1704 22.6119 15.2131C22.941 15.2556 23.2748 15.2556 23.6142 15.2131C23.9529 15.1704 24.2869 15.0901 24.616 14.972C24.9451 14.854 25.2447 14.7064 25.5145 14.5294C25.7844 14.3523 26.0114 14.1505 26.1959 13.9244C26.38 13.698 26.5019 13.4537 26.561 13.1915C26.6203 12.9226 26.6368 12.6538 26.6104 12.3848C26.5841 12.116 26.5182 11.8669 26.4129 11.6371Z" fill="#0D0C23"/>
<path fill-rule="evenodd" clip-rule="evenodd" d="M36.0452 16.831C36.0092 17.0475 35.9579 17.2754 35.8922 17.5149C35.8263 17.754 35.7491 17.9723 35.6604 18.1692C35.5714 18.3658 35.4728 18.5246 35.3642 18.6461C35.2555 18.7674 35.1385 18.8182 35.0136 18.7987C34.9149 18.7853 34.8523 18.7231 34.8262 18.6117C34.7996 18.5001 34.7996 18.3623 34.8262 18.1986C34.8523 18.0345 34.9032 17.8491 34.979 17.6426C35.0547 17.4361 35.147 17.231 35.2555 17.0279C35.3642 16.8245 35.4876 16.6294 35.6258 16.4425C35.7639 16.2557 35.9087 16.0998 36.0601 15.9753C36.093 16.0146 36.1078 16.113 36.1045 16.2704C36.101 16.4278 36.0815 16.6148 36.0452 16.831ZM39.3924 12.5617C39.3034 12.4634 39.1949 12.4077 39.0664 12.3945C38.9381 12.3813 38.808 12.4535 38.6766 12.6109C38.5909 12.7682 38.4822 12.9191 38.3506 13.0634C38.219 13.2078 38.0825 13.3388 37.941 13.4569C37.7993 13.5748 37.6644 13.6767 37.5362 13.7618C37.4079 13.8472 37.3074 13.9094 37.2351 13.9487C37.2087 13.739 37.1937 13.5127 37.1906 13.2699C37.1871 13.0273 37.1923 12.7815 37.2054 12.5322C37.225 12.1781 37.2662 11.8207 37.3288 11.4599C37.3914 11.0993 37.4818 10.7451 37.6004 10.3974C37.6004 10.2139 37.5574 10.0646 37.4719 9.94982C37.3862 9.83513 37.2827 9.76287 37.161 9.73341C37.039 9.70396 36.9143 9.72031 36.7858 9.78258C36.6575 9.84498 36.5473 9.95818 36.455 10.1219C36.3762 10.3385 36.2856 10.5811 36.1836 10.8499C36.0815 11.1189 35.9664 11.3927 35.8381 11.6714C35.7096 11.9503 35.5665 12.2207 35.4085 12.483C35.2506 12.7454 35.0778 12.9783 34.8902 13.1815C34.7026 13.3848 34.4985 13.5439 34.2782 13.6586C34.0574 13.7734 33.8192 13.8242 33.5624 13.8111C33.4438 13.7783 33.3581 13.6898 33.3056 13.5454C33.2529 13.4012 33.2216 13.2208 33.2119 13.0044C33.202 12.788 33.2119 12.5502 33.2413 12.2911C33.271 12.0322 33.3105 11.7747 33.36 11.519C33.4092 11.2631 33.4635 11.0205 33.5226 10.791C33.5819 10.5615 33.6378 10.3679 33.6905 10.2105C33.7695 10.0205 33.7695 9.8612 33.6905 9.73341C33.6116 9.60548 33.5031 9.52037 33.3649 9.47756C33.2267 9.43502 33.0817 9.43675 32.9304 9.48257C32.779 9.52849 32.6703 9.63007 32.6046 9.78744C32.4926 10.0565 32.3905 10.3581 32.2984 10.6925C32.2064 11.027 32.1322 11.3731 32.0764 11.7304C32.0204 12.0879 31.9889 12.4421 31.9825 12.793C31.9821 12.8158 31.9831 12.8375 31.9831 12.8602C31.8396 13.2415 31.7029 13.5297 31.5729 13.7225C31.4051 13.9718 31.2156 14.08 31.0052 14.0471C30.9127 14.0078 30.8522 13.916 30.8225 13.7716C30.7927 13.6275 30.783 13.4504 30.7927 13.2404C30.8028 13.0307 30.8275 12.793 30.8668 12.5272C30.9065 12.2617 30.9556 11.9862 31.0149 11.7009C31.0742 11.4155 31.1368 11.1288 31.2025 10.8402C31.2684 10.5516 31.3275 10.2794 31.3804 10.0236C31.3738 9.79407 31.3062 9.61873 31.1777 9.49729C31.0497 9.3761 30.8701 9.32855 30.6399 9.35465C30.4819 9.42027 30.365 9.50565 30.2894 9.61049C30.2136 9.7153 30.1526 9.84986 30.1067 10.0137C30.0802 10.0991 30.0408 10.2696 29.9881 10.5254C29.9354 10.781 29.8681 11.0747 29.7857 11.4058C29.7035 11.7371 29.6063 12.083 29.4945 12.4436C29.3827 12.8043 29.2575 13.1308 29.1195 13.4225C28.9811 13.7143 28.8298 13.9487 28.6652 14.1258C28.5007 14.3028 28.323 14.3751 28.1321 14.3422C28.0267 14.3225 27.9593 14.2143 27.9297 14.0176C27.9 13.8208 27.8953 13.5783 27.9148 13.2897C27.9346 13.0011 27.9741 12.6846 28.0332 12.3404C28.0925 11.9961 28.1533 11.6699 28.2159 11.3615C28.2785 11.0533 28.3362 10.781 28.3889 10.545C28.4414 10.3089 28.4776 10.1515 28.4974 10.0729C28.4974 9.88268 28.4544 9.7303 28.3691 9.61535C28.2834 9.50077 28.1799 9.42851 28.058 9.39894C27.936 9.36949 27.811 9.38584 27.683 9.44811C27.5545 9.51051 27.4443 9.62371 27.352 9.78744C27.3191 9.96454 27.2763 10.1696 27.2237 10.4024C27.171 10.6351 27.1202 10.8745 27.0707 11.1205C27.0213 11.3665 26.9752 11.6075 26.9326 11.8436C26.8897 12.0797 26.8584 12.2863 26.8387 12.4634C26.8255 12.601 26.8107 12.77 26.7944 12.9699C26.7777 13.1701 26.7695 13.3815 26.7695 13.6044C26.7695 13.8276 26.7859 14.0488 26.8191 14.2685C26.8518 14.4883 26.9111 14.69 26.9966 14.8734C27.0821 15.0571 27.2023 15.2079 27.3572 15.3259C27.5116 15.444 27.7075 15.5095 27.9445 15.5228C28.1879 15.5357 28.4002 15.5179 28.5814 15.4686C28.7622 15.4194 28.9268 15.3423 29.075 15.2373C29.2231 15.1326 29.358 15.0079 29.4799 14.8636C29.6014 14.7194 29.7216 14.562 29.84 14.3914C29.9521 14.6408 30.0968 14.8341 30.2746 14.9719C30.4523 15.1095 30.6399 15.1917 30.8374 15.2177C31.0346 15.2438 31.2356 15.2162 31.4397 15.1341C31.6436 15.0522 31.8279 14.9129 31.9924 14.716C32.1009 14.5954 32.2031 14.4582 32.299 14.3066C32.3398 14.3776 32.383 14.4461 32.4318 14.5094C32.5931 14.7194 32.812 14.8636 33.0885 14.9423C33.3847 15.021 33.674 15.0343 33.9571 14.9817C34.2401 14.9293 34.5101 14.8341 34.7666 14.6964C35.0234 14.5587 35.2619 14.3932 35.4827 14.1996C35.703 14.0062 35.8955 13.8046 36.0601 13.5946C36.0535 13.7455 36.0502 13.8882 36.0502 14.0225C36.0502 14.157 36.0469 14.3028 36.0405 14.4603C35.7112 14.69 35.4003 14.9654 35.1075 15.2866C34.8144 15.6079 34.5576 15.9506 34.3373 16.3146C34.1167 16.6784 33.944 17.0475 33.8192 17.4212C33.694 17.7952 33.633 18.1444 33.6363 18.4692C33.6396 18.7937 33.7168 19.0773 33.8684 19.3199C34.0195 19.5627 34.2664 19.7363 34.6087 19.8413C34.9643 19.9529 35.2767 19.956 35.5469 19.8512C35.8167 19.7461 36.0518 19.5723 36.2526 19.3298C36.4534 19.0872 36.6179 18.7937 36.7464 18.4494C36.8747 18.1051 36.9767 17.746 37.0524 17.3722C37.128 16.9985 37.1758 16.6309 37.1956 16.2704C37.2153 15.9096 37.2153 15.5881 37.1956 15.3062C37.7616 15.0702 38.2256 14.7718 38.5876 14.411C38.9496 14.0506 39.2491 13.6701 39.4861 13.2699C39.5584 13.1716 39.5831 13.0535 39.5602 12.9159C39.5369 12.7781 39.4811 12.66 39.3924 12.5617Z" fill="#0D0C23"/>
<path fill-rule="evenodd" clip-rule="evenodd" d="M51.8471 11.9323C51.8668 11.7816 51.8965 11.6224 51.9358 11.4552C51.9754 11.288 52.0248 11.1256 52.0841 10.9682C52.1432 10.8109 52.2124 10.6748 52.2915 10.56C52.3703 10.4453 52.4544 10.3633 52.5431 10.314C52.6321 10.265 52.7223 10.2698 52.8147 10.3287C52.9134 10.3879 52.9741 10.5124 52.9974 10.7025C53.0202 10.893 52.9974 11.0961 52.9282 11.3126C52.859 11.5291 52.7357 11.7323 52.5579 11.9225C52.3802 12.1128 52.1399 12.2372 51.8372 12.2962C51.824 12.2047 51.8273 12.0832 51.8471 11.9323ZM55.2679 12.3356C55.1594 12.303 55.0558 12.2996 54.957 12.3258C54.8583 12.352 54.7957 12.4209 54.7696 12.5325C54.7167 12.7423 54.6327 12.9571 54.5175 13.1767C54.4024 13.3965 54.261 13.6047 54.0933 13.8015C53.9255 13.9982 53.736 14.172 53.5256 14.3228C53.3147 14.4737 53.0944 14.5819 52.8639 14.6474C52.6335 14.7197 52.4426 14.7278 52.2915 14.672C52.1399 14.6164 52.0199 14.5212 51.9311 14.3868C51.8421 14.2524 51.7779 14.09 51.7386 13.8998C51.699 13.7096 51.676 13.5129 51.6694 13.3095C52.0446 13.3358 52.3786 13.2687 52.6716 13.1078C52.9642 12.9473 53.2128 12.734 53.4169 12.4685C53.6207 12.2029 53.7756 11.9045 53.8808 11.5733C53.986 11.2422 54.0454 10.9126 54.0585 10.5846C54.0651 10.2763 54.0192 10.0157 53.9204 9.80257C53.8217 9.58952 53.6883 9.42367 53.5204 9.30573C53.3528 9.18768 53.1601 9.11877 52.943 9.09919C52.726 9.07946 52.5052 9.10903 52.2814 9.18768C52.0114 9.27952 51.7828 9.42865 51.5952 9.63534C51.4076 9.84189 51.2513 10.0814 51.1263 10.3534C51.0013 10.6256 50.9025 10.919 50.8302 11.2338C50.7577 11.5487 50.705 11.8586 50.6723 12.1636C50.6426 12.4373 50.6268 12.699 50.6212 12.9516C50.607 12.9837 50.5934 13.0145 50.5784 13.0488C50.4762 13.2818 50.3576 13.5097 50.2229 13.7326C50.0881 13.9556 49.9381 14.1426 49.7738 14.2933C49.6093 14.4442 49.4381 14.4966 49.2604 14.4507C49.155 14.4246 49.0975 14.3031 49.0877 14.0868C49.0778 13.8703 49.0891 13.6014 49.122 13.2801C49.155 12.9588 49.1929 12.611 49.2357 12.2372C49.2783 11.8634 49.2998 11.5061 49.2998 11.165C49.2998 10.8699 49.2438 10.5863 49.1319 10.314C49.0199 10.0421 48.8669 9.81567 48.6729 9.63534C48.4787 9.45487 48.2532 9.33518 47.9967 9.27629C47.7399 9.21712 47.4635 9.25656 47.1674 9.39422C46.8711 9.53201 46.6357 9.72543 46.4615 9.97467C46.2868 10.224 46.1272 10.4862 45.9825 10.7617C45.9298 10.5518 45.8525 10.3568 45.7504 10.1763C45.6485 9.99602 45.5235 9.83863 45.3754 9.7041C45.2271 9.56982 45.0608 9.46485 44.8769 9.38934C44.6926 9.31409 44.4982 9.27629 44.2941 9.27629C44.0968 9.27629 43.9142 9.31409 43.7463 9.38934C43.5785 9.46485 43.4255 9.56145 43.2871 9.67951C43.1489 9.79769 43.0239 9.93037 42.9119 10.078C42.8001 10.2255 42.7012 10.3716 42.6158 10.5157C42.6024 10.3452 42.5878 10.1961 42.5715 10.068C42.5548 9.94024 42.5252 9.83202 42.4825 9.74353C42.4397 9.65492 42.379 9.58779 42.2999 9.54185C42.2208 9.49605 42.109 9.47297 41.9642 9.47297C41.8917 9.47297 41.8193 9.48769 41.747 9.51714C41.6745 9.54673 41.6102 9.58779 41.5544 9.6402C41.4984 9.69288 41.4558 9.75663 41.4261 9.83202C41.3965 9.90741 41.3885 9.9944 41.4014 10.0927C41.408 10.165 41.4261 10.2517 41.4558 10.3534C41.4852 10.4552 41.5132 10.5881 41.5396 10.7518C41.566 10.9158 41.5874 11.1142 41.6039 11.347C41.6203 11.5799 41.6251 11.8652 41.6187 12.2029C41.6119 12.5407 41.5874 12.9357 41.5446 13.3883C41.5017 13.8408 41.4342 14.3655 41.3421 14.9622C41.3289 15.0999 41.3817 15.2115 41.5003 15.2967C41.6187 15.3819 41.7536 15.431 41.9049 15.4443C42.0563 15.4574 42.1996 15.431 42.3345 15.3656C42.4694 15.2999 42.5468 15.1852 42.5664 15.0213C42.5861 14.713 42.624 14.3852 42.68 14.0375C42.7358 13.69 42.805 13.3457 42.8874 13.0046C42.9696 12.6637 43.0633 12.3391 43.1687 12.0307C43.2739 11.7224 43.3909 11.4503 43.5192 11.2142C43.6477 10.9781 43.7809 10.7896 43.9191 10.6486C44.0573 10.5076 44.202 10.4371 44.3536 10.4371C44.5377 10.4371 44.6808 10.5206 44.783 10.6878C44.8849 10.8552 44.9572 11.0701 45.0002 11.3321C45.0428 11.5946 45.0626 11.8817 45.0595 12.193C45.056 12.5045 45.0428 12.8046 45.02 13.0931C44.9969 13.3818 44.9706 13.6391 44.9409 13.8654C44.9113 14.0917 44.8898 14.2475 44.8769 14.3326C44.8769 14.4835 44.9343 14.6031 45.0494 14.6917C45.1645 14.7802 45.2928 14.8327 45.4345 14.8491C45.5762 14.8656 45.7092 14.8392 45.8344 14.7703C45.9594 14.7014 46.0319 14.5852 46.0517 14.4211C46.1174 13.949 46.208 13.4753 46.3231 12.9998C46.4382 12.5243 46.57 12.0981 46.7181 11.7209C46.8661 11.3438 47.0307 11.0355 47.2117 10.7961C47.3927 10.5569 47.5852 10.4371 47.7893 10.4371C47.8945 10.4371 47.9752 10.5093 48.031 10.6535C48.0871 10.7977 48.1151 10.9944 48.1151 11.2437C48.1151 11.4274 48.1002 11.6159 48.0708 11.8094C48.0409 12.0028 48.0065 12.2029 47.967 12.4094C47.9275 12.6161 47.8929 12.8275 47.8632 13.0439C47.8338 13.2605 47.8189 13.4866 47.8189 13.7227C47.8189 13.8867 47.8354 14.0769 47.8684 14.2933C47.9011 14.5096 47.9635 14.7148 48.0558 14.9081C48.148 15.1017 48.2747 15.2656 48.4361 15.4C48.5973 15.5344 48.8029 15.6016 49.0529 15.6016C49.4283 15.6016 49.7604 15.5213 50.0502 15.3606C50.3397 15.2 50.5883 14.9902 50.7956 14.7311C50.8063 14.7175 50.8162 14.7031 50.8267 14.6896C50.8426 14.7279 50.8566 14.7685 50.8745 14.8049C51.016 15.0934 51.2085 15.3163 51.4521 15.4738C51.6955 15.6312 51.982 15.7181 52.3112 15.7345C52.6401 15.7508 52.9988 15.6901 53.3874 15.5525C53.6767 15.4475 53.9286 15.3163 54.1425 15.159C54.3563 15.0016 54.5488 14.8098 54.72 14.5835C54.8913 14.3572 55.0474 14.0965 55.1891 13.8015C55.3307 13.5062 55.4737 13.1686 55.6184 12.7881C55.6448 12.6834 55.6201 12.5899 55.5445 12.5078C55.4687 12.4259 55.3767 12.3685 55.2679 12.3356Z" fill="#0D0C23"/>
<path fill-rule="evenodd" clip-rule="evenodd" d="M60.6337 11.2383C60.6007 11.4319 60.5564 11.6452 60.5004 11.8778C60.4444 12.1107 60.3738 12.3517 60.2881 12.6009C60.2027 12.8501 60.0972 13.0748 59.9722 13.2747C59.8472 13.4749 59.7039 13.6338 59.5429 13.7518C59.3814 13.8699 59.1957 13.9191 58.985 13.8994C58.8796 13.8864 58.7989 13.8142 58.7431 13.6829C58.687 13.5519 58.6576 13.3846 58.6541 13.1812C58.6508 12.9781 58.6689 12.755 58.7085 12.5123C58.748 12.2698 58.8087 12.0319 58.8913 11.7991C58.9735 11.5664 59.0738 11.3515 59.1922 11.1547C59.3108 10.958 59.4473 10.8055 59.602 10.6973C59.7566 10.5891 59.9263 10.5384 60.1104 10.5448C60.2947 10.5514 60.4922 10.6431 60.7029 10.8202C60.6895 10.9056 60.6666 11.045 60.6337 11.2383ZM64.1435 11.9909C64.0414 11.9385 63.9361 11.9271 63.8276 11.9566C63.7191 11.986 63.6416 12.0861 63.5957 12.2566C63.5694 12.4403 63.5101 12.6566 63.418 12.9058C63.3258 13.155 63.2121 13.3913 63.0774 13.6141C62.9423 13.8371 62.7877 14.0224 62.6132 14.1699C62.4388 14.3176 62.2529 14.3848 62.0556 14.3715C61.8909 14.3585 61.7755 14.2749 61.71 14.1208C61.6439 13.9666 61.6096 13.7733 61.6063 13.5403C61.6028 13.3077 61.626 13.0453 61.6752 12.7534C61.7247 12.4616 61.784 12.1715 61.853 11.8827C61.9222 11.5942 61.993 11.3171 62.0655 11.0515C62.1378 10.7859 62.1969 10.5613 62.2432 10.3777C62.2957 10.2137 62.2792 10.0744 62.1938 9.95946C62.1081 9.84488 62.0012 9.76276 61.8729 9.71361C61.7444 9.66443 61.6143 9.65132 61.4827 9.67428C61.3511 9.69726 61.2657 9.76776 61.2261 9.8857C60.8377 9.55123 60.4642 9.37089 60.1057 9.3447C59.7467 9.31848 59.416 9.39722 59.1133 9.5808C58.8104 9.76439 58.5423 10.03 58.3088 10.3777C58.075 10.7254 57.8858 11.104 57.7408 11.5139C57.596 11.9237 57.5056 12.3419 57.4694 12.7682C57.4332 13.1945 57.4612 13.5831 57.5534 13.9339C57.6457 14.2847 57.8084 14.5718 58.0421 14.7946C58.2756 15.0176 58.5933 15.1292 58.9949 15.1292C59.1726 15.1292 59.3437 15.0931 59.5083 15.021C59.6726 14.9487 59.8242 14.8635 59.9623 14.7651C60.1005 14.6668 60.2222 14.5634 60.3279 14.4552C60.4329 14.347 60.5153 14.2569 60.5746 14.1847C60.6205 14.4208 60.6963 14.621 60.8017 14.7848C60.9067 14.9487 61.027 15.0833 61.1619 15.1881C61.2968 15.2929 61.4384 15.37 61.5865 15.4193C61.7346 15.4685 61.8779 15.4931 62.0159 15.4931C62.3254 15.4931 62.6147 15.3881 62.8849 15.1782C63.1546 14.9685 63.3966 14.711 63.6105 14.4061C63.8243 14.101 64.0006 13.7798 64.1385 13.4419C64.2769 13.1042 64.369 12.8042 64.4151 12.5418C64.4612 12.4434 64.4528 12.3402 64.3904 12.232C64.3278 12.1238 64.2456 12.0435 64.1435 11.9909Z" fill="#0D0C23"/>
<path fill-rule="evenodd" clip-rule="evenodd" d="M81.9154 17.4218C81.8596 17.6446 81.7723 17.8335 81.6537 17.9875C81.5353 18.1415 81.3872 18.2219 81.2095 18.2286C81.0977 18.235 81.012 18.1759 80.9527 18.0516C80.8936 17.9268 80.8524 17.7661 80.8293 17.5695C80.8063 17.3726 80.7964 17.1529 80.7997 16.9103C80.803 16.6677 80.8129 16.4282 80.8293 16.1922C80.8456 15.9562 80.8656 15.7363 80.8886 15.5331C80.9115 15.3297 80.9296 15.1725 80.9428 15.061C81.1666 15.0872 81.3528 15.1838 81.5007 15.3511C81.6487 15.5183 81.7624 15.7167 81.8413 15.9463C81.9203 16.1758 81.9663 16.4235 81.9796 16.6889C81.9926 16.9546 81.9712 17.1988 81.9154 17.4218ZM78.3413 17.4218C78.2855 17.6446 78.1982 17.8335 78.0798 17.9875C77.9614 18.1415 77.8131 18.2219 77.6354 18.2286C77.5236 18.235 77.4381 18.1759 77.3788 18.0516C77.3195 17.9268 77.2783 17.7661 77.2555 17.5695C77.2322 17.3726 77.2223 17.1529 77.2258 16.9103C77.2289 16.6677 77.2388 16.4282 77.2555 16.1922C77.2717 15.9562 77.2915 15.7363 77.3146 15.5331C77.3376 15.3297 77.3555 15.1725 77.3689 15.061C77.5926 15.0872 77.7787 15.1838 77.9266 15.3511C78.0749 15.5183 78.1883 15.7167 78.2674 15.9463C78.3465 16.1758 78.3924 16.4235 78.4056 16.6889C78.4185 16.9546 78.3971 17.1988 78.3413 17.4218ZM74.6738 11.8343C74.667 11.9916 74.6521 12.131 74.6291 12.2523C74.606 12.3738 74.5749 12.4507 74.5354 12.4835C74.4629 12.4441 74.3739 12.3426 74.2687 12.1785C74.1635 12.0147 74.0813 11.8292 74.0218 11.6226C73.9627 11.4161 73.9444 11.2129 73.9676 11.0127C73.9905 10.8128 74.0943 10.6572 74.2786 10.5455C74.3509 10.5062 74.4135 10.5209 74.4662 10.5898C74.5189 10.6587 74.5615 10.7586 74.5947 10.8898C74.6274 11.0211 74.6503 11.1719 74.6637 11.3423C74.6769 11.5129 74.6801 11.6768 74.6738 11.8343ZM73.7998 13.7968C73.6977 13.9049 73.584 13.9984 73.4592 14.0771C73.334 14.1559 73.2057 14.2149 73.0741 14.2542C72.9423 14.2937 72.8239 14.3034 72.7187 14.2837C72.4226 14.2248 72.1954 14.0967 72.0375 13.9C71.8795 13.7033 71.779 13.4722 71.7364 13.2066C71.6936 12.9409 71.6983 12.6573 71.7512 12.3556C71.8038 12.054 71.8925 11.7737 72.0177 11.5146C72.1427 11.2555 72.2943 11.0324 72.4718 10.8456C72.6495 10.6587 72.8437 10.5424 73.0544 10.4963C72.9753 10.8308 72.9491 11.1768 72.9753 11.5342C73.0016 11.8916 73.0873 12.2277 73.2321 12.5424C73.3241 12.7329 73.4345 12.9065 73.5628 13.0639C73.6913 13.2214 73.8476 13.3558 74.0319 13.4672C73.9792 13.5788 73.9017 13.6886 73.7998 13.7968ZM84.7242 11.9327C84.744 11.7819 84.7735 11.6226 84.8132 11.4554C84.8525 11.2883 84.902 11.1259 84.9611 10.9685C85.0204 10.8111 85.0896 10.675 85.1686 10.5603C85.2477 10.4456 85.3313 10.3635 85.4203 10.3143C85.5092 10.2652 85.5996 10.27 85.6917 10.3291C85.7905 10.3882 85.8513 10.5128 85.8743 10.7028C85.8974 10.8932 85.8743 11.0963 85.8053 11.3129C85.7362 11.5293 85.6128 11.7326 85.4351 11.9227C85.2576 12.1131 85.0171 12.2376 84.7143 12.2966C84.7012 12.2049 84.7045 12.0835 84.7242 11.9327ZM88.7032 11.9327C88.7229 11.7819 88.7524 11.6226 88.7919 11.4554C88.8315 11.2883 88.8809 11.1259 88.9402 10.9685C88.9993 10.8111 89.0683 10.675 89.1473 10.5603C89.2264 10.4456 89.3104 10.3635 89.3992 10.3143C89.4881 10.2652 89.5786 10.27 89.6706 10.3291C89.7694 10.3882 89.8302 10.5128 89.8533 10.7028C89.8763 10.8932 89.8533 11.0963 89.7843 11.3129C89.7151 11.5293 89.5917 11.7326 89.414 11.9227C89.2363 12.1131 88.996 12.2376 88.6933 12.2966C88.6801 12.2049 88.6834 12.0835 88.7032 11.9327ZM92.4006 12.5081C92.3248 12.4262 92.2327 12.3688 92.1242 12.3359C92.0155 12.3032 91.9119 12.2999 91.8131 12.3262C91.7144 12.3524 91.6516 12.4213 91.6255 12.5327C91.5727 12.7426 91.4889 12.9574 91.3738 13.1769C91.2585 13.3968 91.117 13.605 90.9492 13.8017C90.7814 13.9984 90.5921 14.1724 90.3817 14.3231C90.1708 14.474 89.9505 14.5822 89.7202 14.6476C89.4896 14.72 89.2987 14.7281 89.1473 14.6723C88.996 14.6166 88.8759 14.5216 88.787 14.3871C88.6982 14.2526 88.6342 14.0904 88.5944 13.9C88.5551 13.71 88.5318 13.5133 88.5254 13.3099C88.9006 13.3362 89.2347 13.269 89.5275 13.1082C89.8203 12.9475 90.0689 12.7342 90.2731 12.4687C90.477 12.2032 90.6317 11.9048 90.7369 11.5736C90.8421 11.2424 90.9014 10.9129 90.9148 10.5849C90.9212 10.2767 90.8751 10.0159 90.7764 9.80277C90.6778 9.58974 90.5446 9.42399 90.3767 9.30606C90.2087 9.18788 90.0164 9.1191 89.7989 9.09939C89.5818 9.07966 89.3613 9.10938 89.1375 9.18788C88.8675 9.27984 88.6389 9.429 88.4515 9.63554C88.2639 9.84221 88.1074 10.0817 87.9824 10.3537C87.8572 10.626 87.7586 10.9193 87.6861 11.2341C87.6136 11.5489 87.5611 11.8589 87.5283 12.1638C87.4962 12.4597 87.4789 12.7429 87.475 13.0139C87.4501 13.068 87.4235 13.1223 87.3949 13.1769C87.2796 13.3968 87.1381 13.605 86.9703 13.8017C86.8027 13.9984 86.6132 14.1724 86.4027 14.3231C86.1921 14.474 85.9715 14.5822 85.7413 14.6476C85.5107 14.72 85.32 14.7281 85.1686 14.6723C85.0171 14.6166 84.897 14.5216 84.8083 14.3871C84.7195 14.2526 84.6553 14.0904 84.6157 13.9C84.5762 13.71 84.5531 13.5133 84.5465 13.3099C84.9217 13.3362 85.2557 13.269 85.5488 13.1082C85.8414 12.9475 86.0899 12.7342 86.294 12.4687C86.4981 12.2032 86.6527 11.9048 86.758 11.5736C86.8632 11.2424 86.9227 10.9129 86.9357 10.5849C86.9423 10.2767 86.8964 10.0159 86.7977 9.80277C86.6989 9.58974 86.5654 9.42399 86.3976 9.30606C86.2298 9.18788 86.0374 9.1191 85.8202 9.09939C85.6029 9.07966 85.3824 9.10938 85.1587 9.18788C84.8886 9.27984 84.66 9.429 84.4726 9.63554C84.285 9.84221 84.1285 10.0817 84.0035 10.3537C83.8785 10.626 83.7799 10.9193 83.7074 11.2341C83.6349 11.5489 83.5822 11.8589 83.5494 12.1638C83.5307 12.3358 83.5183 12.5025 83.5091 12.6662C83.4454 12.7202 83.3834 12.7744 83.3173 12.8277C83.0904 13.0114 82.8515 13.1769 82.6015 13.3246C82.3513 13.4722 82.0912 13.5935 81.8217 13.6886C81.5515 13.7837 81.2752 13.8411 80.9922 13.8607L81.6044 7.32869C81.644 7.1909 81.6242 7.06973 81.5451 6.96477C81.4663 6.85981 81.3641 6.78767 81.2391 6.74836C81.1141 6.70893 80.9807 6.71228 80.8392 6.7581C80.6975 6.80415 80.581 6.90911 80.4887 7.07284C80.4426 7.3222 80.3948 7.66315 80.3456 8.09597C80.2962 8.52879 80.2468 9.00104 80.1975 9.5126C80.1481 10.0242 80.0987 10.5521 80.0495 11.0963C80.0001 11.6409 79.9572 12.1491 79.921 12.6212C79.9193 12.6422 79.9181 12.6611 79.9165 12.6818C79.8588 12.7305 79.803 12.7796 79.7433 12.8277C79.5163 13.0114 79.2775 13.1769 79.0275 13.3246C78.7773 13.4722 78.5174 13.5935 78.2476 13.6886C77.9777 13.7837 77.7011 13.8411 77.4181 13.8607L78.0304 7.32869C78.0699 7.1909 78.0501 7.06973 77.9713 6.96477C77.8922 6.85981 77.7901 6.78767 77.6651 6.74836C77.5401 6.70893 77.4066 6.71228 77.2651 6.7581C77.1237 6.80415 77.0069 6.90911 76.9147 7.07284C76.8685 7.3222 76.821 7.66315 76.7717 8.09597C76.7221 8.52879 76.6729 9.00104 76.6235 9.5126C76.5741 10.0242 76.5248 10.5521 76.4754 11.0963C76.4262 11.6409 76.3832 12.1491 76.3471 12.6212C76.3463 12.6307 76.3457 12.6393 76.3449 12.6488C76.2415 12.6966 76.1288 12.7385 76.0063 12.7737C75.8813 12.8099 75.7398 12.8312 75.5819 12.8377C75.6083 12.7195 75.6295 12.5884 75.6459 12.4441C75.6624 12.2999 75.6758 12.1491 75.6857 11.9916C75.6956 11.8343 75.6987 11.6768 75.6956 11.5194C75.6921 11.3619 75.6838 11.2178 75.6709 11.0865C75.6377 10.8047 75.577 10.5374 75.4882 10.2848C75.3992 10.0324 75.2792 9.821 75.1278 9.65027C74.9763 9.47978 74.7872 9.36498 74.5599 9.30606C74.333 9.24702 74.0679 9.26662 73.7654 9.36497C73.3175 9.30606 72.9145 9.34712 72.5558 9.48802C72.1971 9.62918 71.8859 9.83397 71.6227 10.1028C71.3596 10.3719 71.144 10.6881 70.9761 11.0522C70.8083 11.4161 70.6963 11.79 70.6405 12.1735C70.6168 12.3361 70.6053 12.498 70.6018 12.6595C70.4998 12.8674 70.3882 13.0491 70.2653 13.2016C70.0909 13.4181 69.9098 13.5951 69.7222 13.7328C69.5346 13.8706 69.3487 13.9755 69.1646 14.0477C68.9801 14.1199 68.8155 14.1691 68.6708 14.1952C68.4997 14.228 68.3351 14.2314 68.1772 14.2051C68.0192 14.179 67.8743 14.1035 67.7429 13.9788C67.6374 13.887 67.5567 13.7394 67.5009 13.5361C67.4449 13.3328 67.4122 13.1018 67.4023 12.8426C67.3924 12.5835 67.4023 12.3129 67.4317 12.031C67.4614 11.7491 67.5122 11.4817 67.5847 11.2293C67.6572 10.9768 67.7491 10.7505 67.8613 10.5503C67.9729 10.3505 68.1047 10.2077 68.2562 10.1225C68.3415 10.1357 68.3944 10.1864 68.4142 10.2749C68.434 10.3635 68.4387 10.4685 68.4288 10.5898C68.4191 10.7112 68.4043 10.8358 68.3845 10.9636C68.3648 11.0915 68.3549 11.1982 68.3549 11.2833C68.3878 11.4604 68.4519 11.5982 68.5474 11.6965C68.6428 11.7949 68.7499 11.8524 68.8683 11.8686C68.9867 11.8851 69.1034 11.8573 69.219 11.785C69.3339 11.713 69.4276 11.5982 69.5003 11.4407C69.5066 11.4473 69.5165 11.4505 69.5297 11.4505L69.6681 10.2013C69.7074 10.0306 69.6811 9.8799 69.589 9.74874C69.4968 9.61756 69.375 9.54207 69.2237 9.52247C69.0328 9.24702 68.7744 9.10114 68.4486 9.08467C68.1228 9.06832 67.7888 9.17488 67.4465 9.40441C67.2359 9.55542 67.0499 9.76346 66.8887 10.029C66.7272 10.2948 66.5959 10.5898 66.4939 10.9144C66.3916 11.239 66.3193 11.5818 66.2767 11.9425C66.2338 12.3032 66.2256 12.6541 66.2518 12.995C66.2781 13.3362 66.3391 13.6575 66.4346 13.9591C66.53 14.2608 66.6632 14.5133 66.8345 14.7165C66.9793 14.8936 67.1436 15.0233 67.3279 15.1053C67.5122 15.1873 67.7048 15.2379 67.9056 15.2576C68.1063 15.2772 68.3055 15.269 68.5029 15.2331C68.7004 15.1971 68.888 15.1463 69.0657 15.0805C69.296 14.9954 69.5332 14.8871 69.7766 14.7559C70.02 14.6249 70.2537 14.4674 70.4776 14.2837C70.5954 14.1871 70.7086 14.0818 70.8182 13.9688C70.868 14.0921 70.9238 14.2114 70.991 14.3231C71.1687 14.6182 71.4088 14.8576 71.7117 15.0412C72.0142 15.2248 72.3863 15.3132 72.8272 15.3068C73.3013 15.3002 73.7389 15.1806 74.1404 14.9478C74.542 14.7151 74.871 14.3722 75.1278 13.9198C75.5123 13.9198 75.8906 13.8566 76.2625 13.7312C76.2594 13.7709 76.2561 13.8127 76.2532 13.851C76.2271 14.1986 76.2137 14.4346 76.2137 14.5592C76.2073 14.7756 76.1925 15.0429 76.1694 15.3608C76.1463 15.679 76.1315 16.0135 76.1249 16.3642C76.1185 16.7151 76.1315 17.0693 76.1645 17.4268C76.1974 17.7841 76.2664 18.1088 76.3718 18.4008C76.4769 18.6924 76.6266 18.9401 76.821 19.1436C77.0149 19.3466 77.2701 19.4681 77.5862 19.5075C77.9218 19.5532 78.2114 19.4943 78.455 19.3304C78.6984 19.1662 78.8959 18.9418 79.0474 18.6566C79.1988 18.3712 79.3055 18.0417 79.3683 17.6679C79.4307 17.2939 79.4488 16.9185 79.4226 16.5413C79.3961 16.1642 79.3269 15.8085 79.2151 15.4742C79.1033 15.1396 78.9484 14.8641 78.7511 14.6476C78.8697 14.615 79.011 14.5527 79.1757 14.4608C79.3401 14.369 79.5095 14.2657 79.6842 14.1509C79.727 14.1227 79.7692 14.093 79.812 14.064C79.796 14.2964 79.7878 14.4621 79.7878 14.5592C79.7814 14.7756 79.7665 15.0429 79.7433 15.3608C79.7204 15.679 79.7056 16.0135 79.699 16.3642C79.6924 16.7151 79.7056 17.0693 79.7385 17.4268C79.7713 17.7841 79.8405 18.1088 79.9457 18.4008C80.0509 18.6924 80.2008 18.9401 80.3948 19.1436C80.589 19.3466 80.8442 19.4681 81.1603 19.5075C81.4957 19.5532 81.7852 19.4943 82.0289 19.3304C82.2725 19.1662 82.4699 18.9418 82.6213 18.6566C82.7727 18.3712 82.8795 18.0417 82.9421 17.6679C83.0047 17.2939 83.0227 16.9185 82.9965 16.5413C82.9701 16.1642 82.901 15.8085 82.7893 15.4742C82.6771 15.1396 82.5227 14.8641 82.325 14.6476C82.4436 14.615 82.5851 14.5527 82.7496 14.4608C82.9141 14.369 83.0836 14.2657 83.2582 14.1509C83.3488 14.0912 83.4388 14.0297 83.5288 13.9664C83.5626 14.2872 83.6355 14.5685 83.7516 14.8051C83.8933 15.0938 84.0857 15.3167 84.3293 15.4742C84.5727 15.6314 84.8591 15.7184 85.1884 15.7348C85.5175 15.751 85.876 15.6905 86.2646 15.5527C86.5541 15.4478 86.8057 15.3167 87.0197 15.1593C87.2335 15.0018 87.426 14.81 87.5973 14.5838C87.6072 14.5707 87.6165 14.5565 87.6262 14.5433C87.6566 14.6351 87.6904 14.7234 87.7306 14.8051C87.8722 15.0938 88.0648 15.3167 88.3082 15.4742C88.5516 15.6314 88.838 15.7184 89.1671 15.7348C89.4962 15.751 89.8549 15.6905 90.2433 15.5527C90.533 15.4478 90.7847 15.3167 90.9986 15.1593C91.2124 15.0018 91.4049 14.81 91.5763 14.5838C91.7474 14.3574 91.9035 14.0967 92.0451 13.8017C92.1866 13.5065 92.3297 13.1689 92.4747 12.7884C92.5009 12.6836 92.4762 12.5901 92.4006 12.5081Z" fill="#0D0C23"/>
</g>
</g>
<defs>
<clipPath id="clip0_170_597">
<rect width="94" height="22" fill="white" transform="translate(0.101562 0.227295)"/>
</clipPath>
</defs>
</svg>
